<?xml version="1.0" encoding="UTF-8"?>
<svg id="Layer_1" data-name="Layer 1" xmlns="http://www.w3.org/2000/svg" viewBox="0 0 1002.04 396.5">
  <defs>
    <style>
      .cls-1 {
        letter-spacing: 1.67em;
      }

      .cls-2 {
        fill: none;
      }

      .cls-2, .cls-3 {
        stroke: #00865a;
        stroke-miterlimit: 10;
      }

      .cls-4 {
        opacity: .2;
      }

      .cls-5, .cls-6 {
        fill: #231f20;
        font-family: Orgon-Regular, Orgon-Regular;
        font-size: 8.5px;
      }

      .cls-7 {
        letter-spacing: 1.67em;
      }

      .cls-8 {
        letter-spacing: 1.67em;
      }

      .cls-6 {
        opacity: .97;
      }

      .cls-9 {
        letter-spacing: 1.67em;
      }

      .cls-3 {
        fill: #d6ead9;
        opacity: .75;
      }
    </style>
  </defs>
  <g class="cls-4">
    <rect class="cls-2" x="23" y=".5" width="957.06" height="337.21"/>
    <line class="cls-2" x1="23" y1="319.96" x2="980.06" y2="319.96"/>
    <line class="cls-2" x1="23" y1="302.22" x2="980.06" y2="302.22"/>
    <line class="cls-2" x1="23" y1="284.47" x2="980.06" y2="284.47"/>
    <line class="cls-2" x1="23" y1="266.72" x2="980.06" y2="266.72"/>
    <line class="cls-2" x1="23" y1="248.97" x2="980.06" y2="248.97"/>
    <line class="cls-2" x1="23" y1="231.22" x2="980.06" y2="231.22"/>
    <line class="cls-2" x1="23" y1="213.48" x2="980.06" y2="213.48"/>
    <line class="cls-2" x1="23" y1="195.73" x2="980.06" y2="195.73"/>
    <line class="cls-2" x1="23" y1="177.98" x2="980.06" y2="177.98"/>
    <line class="cls-2" x1="23" y1="160.23" x2="980.06" y2="160.23"/>
    <line class="cls-2" x1="23" y1="142.48" x2="980.06" y2="142.48"/>
    <line class="cls-2" x1="23" y1="124.74" x2="980.06" y2="124.74"/>
    <line class="cls-2" x1="23" y1="106.99" x2="980.06" y2="106.99"/>
    <line class="cls-2" x1="23" y1="89.24" x2="980.06" y2="89.24"/>
    <line class="cls-2" x1="23" y1="71.49" x2="980.06" y2="71.49"/>
    <line class="cls-2" x1="23" y1="53.74" x2="980.06" y2="53.74"/>
    <line class="cls-2" x1="23" y1="36" x2="980.06" y2="36"/>
    <line class="cls-2" x1="23" y1="18.25" x2="980.06" y2="18.25"/>
    <line class="cls-2" x1="926.89" y1=".5" x2="926.89" y2="337.71"/>
    <line class="cls-2" x1="873.72" y1=".5" x2="873.72" y2="337.71"/>
    <line class="cls-2" x1="820.55" y1=".5" x2="820.55" y2="337.71"/>
    <line class="cls-2" x1="767.38" y1=".5" x2="767.38" y2="337.71"/>
    <line class="cls-2" x1="714.21" y1=".5" x2="714.21" y2="337.71"/>
    <line class="cls-2" x1="661.04" y1=".5" x2="661.04" y2="337.71"/>
    <line class="cls-2" x1="607.87" y1=".5" x2="607.87" y2="337.71"/>
    <line class="cls-2" x1="554.7" y1=".5" x2="554.7" y2="337.71"/>
    <line class="cls-2" x1="501.53" y1=".5" x2="501.53" y2="337.71"/>
    <line class="cls-2" x1="448.36" y1=".5" x2="448.36" y2="337.71"/>
    <line class="cls-2" x1="395.19" y1=".5" x2="395.19" y2="337.71"/>
    <line class="cls-2" x1="342.02" y1=".5" x2="342.02" y2="337.71"/>
    <line class="cls-2" x1="288.85" y1=".5" x2="288.85" y2="337.71"/>
    <line class="cls-2" x1="235.68" y1=".5" x2="235.68" y2="337.71"/>
    <line class="cls-2" x1="182.51" y1=".5" x2="182.51" y2="337.71"/>
    <line class="cls-2" x1="129.34" y1=".5" x2="129.34" y2="337.71"/>
    <line class="cls-2" x1="76.17" y1=".5" x2="76.17" y2="337.71"/>
  </g>
  <text class="cls-5" transform="translate(0 13.75)"><tspan x="0" y="0">680-</tspan><tspan x="0" y="17.57">660-</tspan><tspan x="0" y="35.15">640-</tspan><tspan x="0" y="52.72">620-</tspan><tspan x="0" y="70.3">600-</tspan><tspan x="0" y="87.87">580-</tspan><tspan x="0" y="105.45">560-</tspan><tspan x="0" y="123.02">540-</tspan><tspan x="0" y="140.6">520-</tspan><tspan x="0" y="158.17">500-</tspan><tspan x="0" y="175.75">480-</tspan><tspan x="0" y="193.32">460-</tspan><tspan x="0" y="210.9">440-</tspan><tspan x="0" y="228.47">420-</tspan><tspan x="0" y="246.05">400-</tspan><tspan x="0" y="263.62">380-</tspan><tspan x="0" y="281.2">360-</tspan><tspan x="0" y="298.77">340-</tspan><tspan x="0" y="316.35">320-</tspan></text>
  <text class="cls-6" transform="translate(63.36 352.16)"><tspan x="0" y="0">12:40</tspan><tspan class="cls-1" x="21.28" y="0" xml:space="preserve">  </tspan><tspan x="53.52" y="0">15:26</tspan><tspan class="cls-1" x="74.79" y="0" xml:space="preserve">  </tspan><tspan x="107.03" y="0">18:13</tspan><tspan class="cls-1" x="128.31" y="0" xml:space="preserve">  </tspan><tspan x="160.55" y="0">21:00</tspan><tspan class="cls-1" x="181.83" y="0" xml:space="preserve">  </tspan><tspan x="214.07" y="0">23:46</tspan><tspan class="cls-1" x="235.34" y="0" xml:space="preserve">  </tspan><tspan x="267.58" y="0">02:33</tspan><tspan class="cls-1" x="288.86" y="0" xml:space="preserve">  </tspan><tspan x="321.1" y="0">05:20</tspan><tspan class="cls-1" x="342.38" y="0" xml:space="preserve">  </tspan><tspan x="374.62" y="0">08:06</tspan><tspan class="cls-1" x="395.89" y="0" xml:space="preserve">  </tspan><tspan x="428.13" y="0">10:53</tspan><tspan class="cls-7" x="449.41" y="0" xml:space="preserve">  </tspan><tspan x="481.65" y="0">13:40</tspan><tspan class="cls-9" x="502.93" y="0" xml:space="preserve">  </tspan><tspan x="535.17" y="0">16:26</tspan><tspan class="cls-8" x="556.44" y="0" xml:space="preserve">  </tspan><tspan x="588.68" y="0">19:13</tspan><tspan class="cls-9" x="609.96" y="0" xml:space="preserve">  </tspan><tspan x="642.2" y="0">22:00</tspan><tspan class="cls-8" x="663.48" y="0" xml:space="preserve">  </tspan><tspan x="695.72" y="0">00:46</tspan><tspan class="cls-9" x="716.99" y="0" xml:space="preserve">  </tspan><tspan x="749.23" y="0">03:33</tspan><tspan class="cls-8" x="770.51" y="0" xml:space="preserve">  </tspan><tspan x="802.75" y="0">05:20</tspan><tspan class="cls-9" x="824.03" y="0" xml:space="preserve">  </tspan><tspan x="856.27" y="0">08:06</tspan></text>
  <path class="cls-3" d="m23,118.02l8.57,32.86,6.89,6.56,9.19-66.95,6.89-11.03,2.87,5.51,7.02-5.51,11.72,14.22,3.66-35.95,3.45,4.4,5.74-54.35,6.89,55.13,21.83-25.2,33.32,44.89,4.02-7.88,33.32,18.94,25.85-31.55,31.6-.79,14.36-3.62,17.81,11.62,28.15-42.66,62.04,52.77,49.4,71.41,2.87-8.53,17.81,15.09,21.05-85.95,25.95,48.2,5.86,110.22,4.26-2.36,8.81-102.81,5.9,102.81,4.6-48.83,3.45-6.3,3.45-12.17v22.41l5.17-11.81,5.93,10.24v-14.38l4.98,5.72v-5.72l3.45,3.36,1.61-4.57,1.84-5.23,4.6-4.37v10.82l5.53-6.45,10.55,38.16h4.02l3.45-31.71h4.02v-6.45l8.62,34.22,10.91-38.59,8.04,24.42,3.55,31.5,3.91,3.56,5.74,16.91,2.87-5.51,4.6,6.3h3.45l4.6-17.7h4.02v-9.08l4.6,9.08,2.87-5.14,2.87,29.47,4.02-4.27,6.89,4.27h5.74l5.17-8.21,4.6,8.21s6.32,10.36,5.17,5.18,8.62-40.96,8.62-40.96v-12.89l3.45-8.37,8.62,25.99,4.6,24.42,6.32,15.75,9.19.79s59.74-168.05,114.32-198.48l8.62,6.62,18.96-12.72,4.02-12.81,74.8,27.28,39.56,9.11v268.41H23V118.02Z"/>
</svg>