<svg xmlns="http://www.w3.org/2000/svg" width="20" height="19.31" viewBox="0 0 20 19.31">
  <g id="blomstikon" transform="translate(-644.5 -114.5)">
    <path id="Path_449" data-name="Path 449" d="M655.364,121.658a8.37,8.37,0,0,0,.863-3.329c0-1.664-1.727-3.329-1.727-3.329s-1.727,1.665-1.727,3.329a8.37,8.37,0,0,0,.863,3.329" fill="none" stroke="#000" stroke-linecap="round" stroke-linejoin="round" stroke-miterlimit="1.5" stroke-width="1"/>
    <path id="Path_450" data-name="Path 450" d="M651.909,123.323a9.185,9.185,0,0,0-3.454-.833A6.1,6.1,0,0,0,645,124.155a6.1,6.1,0,0,0,3.455,1.665,9.185,9.185,0,0,0,3.454-.833" fill="none" stroke="#000" stroke-linecap="round" stroke-linejoin="round" stroke-miterlimit="1.5" stroke-width="1"/>
    <path id="Path_451" data-name="Path 451" d="M655.364,126.652a8.37,8.37,0,0,1,.863,3.329c0,1.665-1.727,3.329-1.727,3.329s-1.727-1.664-1.727-3.329a8.37,8.37,0,0,1,.863-3.329" fill="none" stroke="#000" stroke-linecap="round" stroke-linejoin="round" stroke-miterlimit="1.5" stroke-width="1"/>
    <path id="Path_452" data-name="Path 452" d="M657.091,123.323a9.185,9.185,0,0,1,3.454-.833A6.1,6.1,0,0,1,664,124.155a6.1,6.1,0,0,1-3.455,1.665,9.185,9.185,0,0,1-3.454-.833" fill="none" stroke="#000" stroke-linecap="round" stroke-linejoin="round" stroke-miterlimit="1.5" stroke-width="1"/>
    <path id="Path_453" data-name="Path 453" d="M653.279,121.8a8.539,8.539,0,0,0-1.832-2.942c-1.222-1.177-3.665-1.177-3.665-1.177A5.661,5.661,0,0,0,649,121.213a9.015,9.015,0,0,0,3.053,1.765" fill="none" stroke="#000" stroke-linecap="round" stroke-linejoin="round" stroke-miterlimit="1.5" stroke-width="1"/>
    <path id="Path_454" data-name="Path 454" d="M652.057,125.332A9.026,9.026,0,0,0,649,127.1a5.661,5.661,0,0,0-1.222,3.531s2.443,0,3.664-1.177a8.521,8.521,0,0,0,1.832-2.943" fill="none" stroke="#000" stroke-linecap="round" stroke-linejoin="round" stroke-miterlimit="1.5" stroke-width="1"/>
    <path id="Path_455" data-name="Path 455" d="M656.943,125.332A9.026,9.026,0,0,1,660,127.1a5.661,5.661,0,0,1,1.222,3.531s-2.443,0-3.665-1.177a8.539,8.539,0,0,1-1.832-2.943" fill="none" stroke="#000" stroke-linecap="round" stroke-linejoin="round" stroke-miterlimit="1.5" stroke-width="1"/>
    <path id="Path_456" data-name="Path 456" d="M655.721,121.8a8.539,8.539,0,0,1,1.832-2.942c1.222-1.177,3.665-1.177,3.665-1.177A5.661,5.661,0,0,1,660,121.213a9.015,9.015,0,0,1-3.053,1.765" fill="none" stroke="#000" stroke-linecap="round" stroke-linejoin="round" stroke-miterlimit="1.5" stroke-width="1"/>
  </g>
</svg>
