<svg xmlns="http://www.w3.org/2000/svg" width="23.414" height="23.414" viewBox="0 0 23.414 23.414">
  <g id="Group_27" data-name="Group 27" transform="translate(-0.293 -0.293)">
    <path id="Path_1503" data-name="Path 1503" d="M11.389,12H5.4a.733.733,0,0,0-.733.733v8.311a.733.733,0,0,0,.733.733H18.6a.733.733,0,0,0,.733-.733v-1.1" fill="none" stroke="#877d7d" stroke-linecap="round" stroke-linejoin="round" stroke-width="1"/>
    <path id="Path_1504" data-name="Path 1504" d="M16.889,12V7.111A4.716,4.716,0,0,0,12,2.222a5.271,5.271,0,0,0-2.284.47" fill="none" stroke="#877d7d" stroke-linecap="round" stroke-linejoin="round" stroke-width="1"/>
    <path id="Path_1505" data-name="Path 1505" d="M16.889,12H18.6a.733.733,0,0,1,.733.733v.489" fill="none" stroke="#877d7d" stroke-linecap="round" stroke-linejoin="round" stroke-width="1"/>
    <path id="Path_1506" data-name="Path 1506" d="M7.111,7.111V12" fill="none" stroke="#877d7d" stroke-linecap="round" stroke-linejoin="round" stroke-width="1"/>
    <path id="Path_1507" data-name="Path 1507" d="M1,1,23,23" fill="none" stroke="#877d7d" stroke-linecap="round" stroke-linejoin="round" stroke-width="1"/>
  </g>
</svg>
