<svg xmlns="http://www.w3.org/2000/svg" width="504.494" height="262.7" viewBox="0 0 504.494 262.7">
  <g id="Group_29" data-name="Group 29" transform="translate(-0.857 -0.276)">
    <rect id="Rectangle_291" data-name="Rectangle 291" width="238" height="205" transform="translate(1 17)" fill="rgba(215,234,217,0.63)"/>
    <path id="Path_1511" data-name="Path 1511" d="M7.8,5.528a9.569,9.569,0,0,1-.338,2.86,2.469,2.469,0,0,1-1,1.4,3.581,3.581,0,0,1-1.82.377,3.548,3.548,0,0,1-1.768-.364,2.4,2.4,0,0,1-.988-1.378,8.96,8.96,0,0,1-.338-2.808,9.757,9.757,0,0,1,.221-2.314,3.09,3.09,0,0,1,.689-1.4,2.552,2.552,0,0,1,.988-.663,4.265,4.265,0,0,1,1.313-.182,5.07,5.07,0,0,1,1.391.169,2.044,2.044,0,0,1,.923.65A3.007,3.007,0,0,1,7.63,3.24,13.4,13.4,0,0,1,7.8,5.528ZM6.59,5.541a9,9,0,0,0-.2-2.158,1.6,1.6,0,0,0-.572-.975A2.159,2.159,0,0,0,4.7,2.161a1.993,1.993,0,0,0-1.092.26,1.792,1.792,0,0,0-.624,1.014,7.85,7.85,0,0,0-.234,2.171,8.149,8.149,0,0,0,.221,2.236,1.593,1.593,0,0,0,.6,1,2.056,2.056,0,0,0,1.079.221,2.743,2.743,0,0,0,.884-.117,1.318,1.318,0,0,0,.585-.481,2.747,2.747,0,0,0,.364-1.079A13.761,13.761,0,0,0,6.59,5.541ZM17.615,9.688a.381.381,0,0,1-.078.273.316.316,0,0,1-.234.065h-.468a.47.47,0,0,1-.234-.039.157.157,0,0,1-.078-.156l-.039-.3a2.813,2.813,0,0,1-2.054.624,2.317,2.317,0,0,1-1.9-.767,3.861,3.861,0,0,1-.637-2.5,3.944,3.944,0,0,1,.754-2.769,3.249,3.249,0,0,1,2.431-.78,3.52,3.52,0,0,1,1.365.195V.575a.272.272,0,0,1,.312-.3h.585c.182,0,.273.1.273.3Zm-1.17-1.417V4.657a3.058,3.058,0,0,0-1.313-.208,2.088,2.088,0,0,0-1.638.52,3.058,3.058,0,0,0-.416,1.872,2.889,2.889,0,0,0,.377,1.716,1.529,1.529,0,0,0,1.313.507,2.6,2.6,0,0,0,1.456-.325.469.469,0,0,0,.195-.2A1.018,1.018,0,0,0,16.445,8.271Zm7.1,1.222a2.631,2.631,0,0,1-1.9.65c-1.508,0-2.249-.689-2.249-2.093A1.678,1.678,0,0,1,20.2,6.477a4.063,4.063,0,0,1,2-.377,10.274,10.274,0,0,1,1.313.065V5.684a2.42,2.42,0,0,0-.091-.728q-.214-.507-1.326-.507a7.966,7.966,0,0,0-1.456.13,2.229,2.229,0,0,1-.442.078.2.2,0,0,1-.221-.182,2.568,2.568,0,0,1-.091-.585.255.255,0,0,1,.221-.273,7.912,7.912,0,0,1,2.171-.286,2.739,2.739,0,0,1,1.963.507,2.45,2.45,0,0,1,.416,1.612V9.675q0,.351-.312.351H23.9c-.208,0-.325-.065-.325-.221Zm-.026-2.431c-.39-.026-.78-.052-1.17-.052a2.823,2.823,0,0,0-1.495.286.84.84,0,0,0-.325.741,1.054,1.054,0,0,0,.3.832,1.627,1.627,0,0,0,1.092.273,2.454,2.454,0,0,0,1.313-.312.686.686,0,0,0,.221-.208.738.738,0,0,0,.065-.338Zm3.641,2.847a1.233,1.233,0,0,1-.923-1.378,1.353,1.353,0,0,1,.871-1.339,2.292,2.292,0,0,1-.481-1.586c0-1.508.871-2.275,2.613-2.275a3.909,3.909,0,0,1,1.2.182h1.7a.26.26,0,0,1,.286.286v.442a.241.241,0,0,1-.273.273h-.676a2.441,2.441,0,0,1,.208.988c0,1.573-.858,2.353-2.548,2.353a4.359,4.359,0,0,1-.923-.091c-.26-.052-.4-.091-.4-.091a.427.427,0,0,0-.286.117.663.663,0,0,0-.221.546c0,.312.117.494.364.559a11.469,11.469,0,0,0,1.859.078,4.638,4.638,0,0,1,2.327.4,1.887,1.887,0,0,1,.6,1.651,1.912,1.912,0,0,1-.741,1.651,4.364,4.364,0,0,1-2.522.546,6.563,6.563,0,0,1-1.56-.156,1.808,1.808,0,0,1-.9-.442,1.481,1.481,0,0,1-.39-.6,2.421,2.421,0,0,1-.091-.728A1.4,1.4,0,0,1,27.161,9.909Zm4.147,1.118a.784.784,0,0,0-.3-.7,3.361,3.361,0,0,0-1.313-.208c-.351,0-.728-.013-1.144-.013a1.664,1.664,0,0,0-.533.065.86.86,0,0,0-.663.923.951.951,0,0,0,.364.845,3.032,3.032,0,0,0,1.534.247,3.289,3.289,0,0,0,1.638-.273A.979.979,0,0,0,31.308,11.027Zm-.7-5.434a1.221,1.221,0,0,0-.338-.988,1.732,1.732,0,0,0-1.079-.273,1.811,1.811,0,0,0-1.079.273,1.1,1.1,0,0,0-.377.975,1.292,1.292,0,0,0,.351,1.066,1.781,1.781,0,0,0,1.092.26,1.589,1.589,0,0,0,1.053-.3A1.223,1.223,0,0,0,30.606,5.593Zm3.674,1.56a1.983,1.983,0,0,0,.455,1.521,2.1,2.1,0,0,0,1.443.4A5.425,5.425,0,0,0,37.945,8.8a.894.894,0,0,1,.312-.065q.117,0,.195.156a2.148,2.148,0,0,1,.156.585.289.289,0,0,1-.208.273,5.227,5.227,0,0,1-2.314.416,2.89,2.89,0,0,1-2.327-.793,4.029,4.029,0,0,1-.663-2.6,3.841,3.841,0,0,1,.741-2.626,2.931,2.931,0,0,1,2.275-.819,3.476,3.476,0,0,1,1.365.234,1.649,1.649,0,0,1,.806.7,3.557,3.557,0,0,1,.351,1.027,9.468,9.468,0,0,1,.091,1.352.563.563,0,0,1-.117.429.418.418,0,0,1-.286.078Zm.013-1h3.276c0-.052.013-.143.013-.273a1.8,1.8,0,0,0-.312-1.17,1.509,1.509,0,0,0-1.2-.377,1.788,1.788,0,0,0-1.365.442A2.1,2.1,0,0,0,34.292,6.152Z"/>
    <path id="Path_1512" data-name="Path 1512" d="M106.51,2.538l-1.157.533a.847.847,0,0,1-.26.078.187.187,0,0,1-.182-.143,2.522,2.522,0,0,1-.247-.663.241.241,0,0,1,.169-.221l1.664-.806a1.036,1.036,0,0,1,.468-.1h.455a.251.251,0,0,1,.273.286V9.714a.272.272,0,0,1-.3.312h-.611q-.273,0-.273-.312Zm10.64,2.99a9.569,9.569,0,0,1-.338,2.86,2.469,2.469,0,0,1-1,1.4,4.529,4.529,0,0,1-3.588.013,2.4,2.4,0,0,1-.988-1.378,8.96,8.96,0,0,1-.338-2.808,9.757,9.757,0,0,1,.221-2.314,3.09,3.09,0,0,1,.689-1.4,2.552,2.552,0,0,1,.988-.663,4.265,4.265,0,0,1,1.313-.182,5.07,5.07,0,0,1,1.391.169,2.044,2.044,0,0,1,.923.65,3.007,3.007,0,0,1,.559,1.365A13.4,13.4,0,0,1,117.15,5.528Zm-1.209.013a9,9,0,0,0-.195-2.158,1.6,1.6,0,0,0-.572-.975,2.159,2.159,0,0,0-1.118-.247,1.993,1.993,0,0,0-1.092.26,1.792,1.792,0,0,0-.624,1.014,7.85,7.85,0,0,0-.234,2.171,8.149,8.149,0,0,0,.221,2.236,1.593,1.593,0,0,0,.6,1A2.056,2.056,0,0,0,114,9.064a2.743,2.743,0,0,0,.884-.117,1.318,1.318,0,0,0,.585-.481,2.747,2.747,0,0,0,.364-1.079A13.761,13.761,0,0,0,115.941,5.541Zm11.025,4.147a.381.381,0,0,1-.078.273.316.316,0,0,1-.234.065h-.468a.47.47,0,0,1-.234-.039.157.157,0,0,1-.078-.156l-.039-.3a2.813,2.813,0,0,1-2.054.624,2.317,2.317,0,0,1-1.9-.767,3.861,3.861,0,0,1-.637-2.5A3.944,3.944,0,0,1,122,4.124a3.249,3.249,0,0,1,2.431-.78,3.52,3.52,0,0,1,1.365.195V.575a.272.272,0,0,1,.312-.3h.585c.182,0,.273.1.273.3ZM125.8,8.271V4.657a3.058,3.058,0,0,0-1.313-.208,2.088,2.088,0,0,0-1.638.52,3.058,3.058,0,0,0-.416,1.872,2.889,2.889,0,0,0,.377,1.716,1.529,1.529,0,0,0,1.313.507,2.6,2.6,0,0,0,1.456-.325.469.469,0,0,0,.195-.2A1.018,1.018,0,0,0,125.8,8.271Zm7.1,1.222a2.631,2.631,0,0,1-1.9.65c-1.508,0-2.249-.689-2.249-2.093a1.678,1.678,0,0,1,.806-1.573,4.063,4.063,0,0,1,2-.377,10.273,10.273,0,0,1,1.313.065V5.684a2.42,2.42,0,0,0-.091-.728q-.215-.507-1.326-.507a7.966,7.966,0,0,0-1.456.13,2.229,2.229,0,0,1-.442.078.2.2,0,0,1-.221-.182,2.568,2.568,0,0,1-.091-.585.255.255,0,0,1,.221-.273,7.911,7.911,0,0,1,2.171-.286,2.739,2.739,0,0,1,1.963.507,2.45,2.45,0,0,1,.416,1.612V9.675q0,.351-.312.351h-.455c-.208,0-.325-.065-.325-.221Zm-.026-2.431c-.39-.026-.78-.052-1.17-.052a2.823,2.823,0,0,0-1.495.286.84.84,0,0,0-.325.741,1.054,1.054,0,0,0,.3.832,1.627,1.627,0,0,0,1.092.273,2.454,2.454,0,0,0,1.313-.312.686.686,0,0,0,.221-.208.738.738,0,0,0,.065-.338Zm3.641,2.847a1.233,1.233,0,0,1-.923-1.378,1.353,1.353,0,0,1,.871-1.339,2.292,2.292,0,0,1-.481-1.586c0-1.508.871-2.275,2.613-2.275a3.909,3.909,0,0,1,1.2.182h1.7a.26.26,0,0,1,.286.286v.442a.241.241,0,0,1-.273.273h-.676a2.441,2.441,0,0,1,.208.988c0,1.573-.858,2.353-2.548,2.353a4.359,4.359,0,0,1-.923-.091c-.26-.052-.4-.091-.4-.091a.427.427,0,0,0-.286.117.663.663,0,0,0-.221.546c0,.312.117.494.364.559a11.468,11.468,0,0,0,1.859.078,4.638,4.638,0,0,1,2.327.4,1.887,1.887,0,0,1,.6,1.651,1.912,1.912,0,0,1-.741,1.651,4.364,4.364,0,0,1-2.522.546,6.563,6.563,0,0,1-1.56-.156,1.808,1.808,0,0,1-.9-.442,1.481,1.481,0,0,1-.39-.6,2.421,2.421,0,0,1-.091-.728A1.4,1.4,0,0,1,136.511,9.909Zm4.147,1.118a.784.784,0,0,0-.3-.7,3.361,3.361,0,0,0-1.313-.208c-.351,0-.728-.013-1.144-.013a1.664,1.664,0,0,0-.533.065.86.86,0,0,0-.663.923.951.951,0,0,0,.364.845,3.032,3.032,0,0,0,1.534.247,3.289,3.289,0,0,0,1.638-.273A.979.979,0,0,0,140.658,11.027Zm-.7-5.434a1.221,1.221,0,0,0-.338-.988,1.732,1.732,0,0,0-1.079-.273,1.811,1.811,0,0,0-1.079.273,1.1,1.1,0,0,0-.377.975,1.292,1.292,0,0,0,.351,1.066,1.781,1.781,0,0,0,1.092.26,1.589,1.589,0,0,0,1.053-.3A1.223,1.223,0,0,0,139.956,5.593Zm3.674,1.56a1.983,1.983,0,0,0,.455,1.521,2.1,2.1,0,0,0,1.443.4A5.425,5.425,0,0,0,147.3,8.8a.894.894,0,0,1,.312-.065q.117,0,.195.156a2.148,2.148,0,0,1,.156.585.289.289,0,0,1-.208.273,5.227,5.227,0,0,1-2.314.416,2.89,2.89,0,0,1-2.327-.793,4.029,4.029,0,0,1-.663-2.6,3.841,3.841,0,0,1,.741-2.626,2.931,2.931,0,0,1,2.275-.819,3.476,3.476,0,0,1,1.365.234,1.649,1.649,0,0,1,.806.7,3.558,3.558,0,0,1,.351,1.027,9.467,9.467,0,0,1,.091,1.352.563.563,0,0,1-.117.429.418.418,0,0,1-.286.078Zm.013-1h3.276c0-.052.013-.143.013-.273a1.8,1.8,0,0,0-.312-1.17,1.509,1.509,0,0,0-1.2-.377,1.788,1.788,0,0,0-1.365.442A2.1,2.1,0,0,0,143.643,6.152Z"/>
    <path id="Path_1513" data-name="Path 1513" d="M224.292,10H218.91c-.182,0-.273-.078-.273-.247v-.52a.458.458,0,0,1,.156-.338q.1-.078.507-.39c.26-.208.455-.364.559-.442s.273-.221.507-.416.429-.351.559-.468.3-.26.494-.429.351-.338.507-.494.3-.3.442-.455a2.99,2.99,0,0,0,.832-2.028,1.685,1.685,0,0,0-.4-1.222,2.079,2.079,0,0,0-1.456-.39,5.16,5.16,0,0,0-1.482.234q-.409.117-.429.117a.189.189,0,0,1-.208-.156,4.18,4.18,0,0,1-.156-.637q0-.195.312-.312a6.307,6.307,0,0,1,2.21-.351,2.946,2.946,0,0,1,2.223.676,2.79,2.79,0,0,1,.6,1.9,3.592,3.592,0,0,1-.845,2.457,17.274,17.274,0,0,1-3.237,2.782c.507,0,1.833-.013,3.965-.013.195,0,.3.091.3.273v.6C224.591,9.909,224.487,10,224.292,10Zm7.858-4.472a9.569,9.569,0,0,1-.338,2.86,2.469,2.469,0,0,1-1,1.4,4.529,4.529,0,0,1-3.588.013,2.4,2.4,0,0,1-.988-1.378,8.96,8.96,0,0,1-.338-2.808,9.758,9.758,0,0,1,.221-2.314,3.09,3.09,0,0,1,.689-1.4,2.552,2.552,0,0,1,.988-.663,4.265,4.265,0,0,1,1.313-.182,5.07,5.07,0,0,1,1.391.169,2.044,2.044,0,0,1,.923.65,3.007,3.007,0,0,1,.559,1.365A13.4,13.4,0,0,1,232.15,5.528Zm-1.209.013a9,9,0,0,0-.195-2.158,1.6,1.6,0,0,0-.572-.975,2.159,2.159,0,0,0-1.118-.247,1.993,1.993,0,0,0-1.092.26,1.792,1.792,0,0,0-.624,1.014,7.851,7.851,0,0,0-.234,2.171,8.15,8.15,0,0,0,.221,2.236,1.593,1.593,0,0,0,.6,1A2.056,2.056,0,0,0,229,9.064a2.743,2.743,0,0,0,.884-.117,1.319,1.319,0,0,0,.585-.481,2.747,2.747,0,0,0,.364-1.079A13.764,13.764,0,0,0,230.941,5.541Zm11.025,4.147a.381.381,0,0,1-.078.273.316.316,0,0,1-.234.065h-.468a.47.47,0,0,1-.234-.039.157.157,0,0,1-.078-.156l-.039-.3a2.813,2.813,0,0,1-2.054.624,2.317,2.317,0,0,1-1.9-.767,3.861,3.861,0,0,1-.637-2.5A3.944,3.944,0,0,1,237,4.124a3.249,3.249,0,0,1,2.431-.78,3.52,3.52,0,0,1,1.365.195V.575a.272.272,0,0,1,.312-.3h.585c.182,0,.273.1.273.3ZM240.8,8.271V4.657a3.058,3.058,0,0,0-1.313-.208,2.088,2.088,0,0,0-1.638.52,3.058,3.058,0,0,0-.416,1.872,2.889,2.889,0,0,0,.377,1.716,1.529,1.529,0,0,0,1.313.507,2.6,2.6,0,0,0,1.456-.325.469.469,0,0,0,.2-.2A1.018,1.018,0,0,0,240.8,8.271Zm7.1,1.222a2.631,2.631,0,0,1-1.9.65c-1.508,0-2.249-.689-2.249-2.093a1.678,1.678,0,0,1,.806-1.573,4.063,4.063,0,0,1,2-.377,10.273,10.273,0,0,1,1.313.065V5.684a2.42,2.42,0,0,0-.091-.728q-.215-.507-1.326-.507a7.966,7.966,0,0,0-1.456.13,2.229,2.229,0,0,1-.442.078.2.2,0,0,1-.221-.182,2.568,2.568,0,0,1-.091-.585.255.255,0,0,1,.221-.273,7.911,7.911,0,0,1,2.171-.286,2.739,2.739,0,0,1,1.963.507,2.45,2.45,0,0,1,.416,1.612V9.675q0,.351-.312.351h-.455c-.208,0-.325-.065-.325-.221Zm-.026-2.431c-.39-.026-.78-.052-1.17-.052a2.823,2.823,0,0,0-1.495.286.84.84,0,0,0-.325.741,1.054,1.054,0,0,0,.3.832,1.627,1.627,0,0,0,1.092.273,2.454,2.454,0,0,0,1.313-.312.686.686,0,0,0,.221-.208.738.738,0,0,0,.065-.338Zm3.641,2.847a1.233,1.233,0,0,1-.923-1.378,1.353,1.353,0,0,1,.871-1.339,2.292,2.292,0,0,1-.481-1.586c0-1.508.871-2.275,2.613-2.275a3.909,3.909,0,0,1,1.2.182h1.7a.26.26,0,0,1,.286.286v.442a.241.241,0,0,1-.273.273h-.676a2.441,2.441,0,0,1,.208.988c0,1.573-.858,2.353-2.548,2.353a4.359,4.359,0,0,1-.923-.091c-.26-.052-.4-.091-.4-.091a.427.427,0,0,0-.286.117.663.663,0,0,0-.221.546c0,.312.117.494.364.559a11.468,11.468,0,0,0,1.859.078,4.638,4.638,0,0,1,2.327.4,1.887,1.887,0,0,1,.6,1.651,1.912,1.912,0,0,1-.741,1.651,4.364,4.364,0,0,1-2.522.546,6.563,6.563,0,0,1-1.56-.156,1.808,1.808,0,0,1-.9-.442,1.481,1.481,0,0,1-.39-.6,2.421,2.421,0,0,1-.091-.728A1.4,1.4,0,0,1,251.511,9.909Zm4.147,1.118a.784.784,0,0,0-.3-.7,3.361,3.361,0,0,0-1.313-.208c-.351,0-.728-.013-1.144-.013a1.664,1.664,0,0,0-.533.065.86.86,0,0,0-.663.923.951.951,0,0,0,.364.845,3.032,3.032,0,0,0,1.534.247,3.289,3.289,0,0,0,1.638-.273A.979.979,0,0,0,255.658,11.027Zm-.7-5.434a1.221,1.221,0,0,0-.338-.988,1.732,1.732,0,0,0-1.079-.273,1.811,1.811,0,0,0-1.079.273,1.1,1.1,0,0,0-.377.975,1.292,1.292,0,0,0,.351,1.066,1.781,1.781,0,0,0,1.092.26,1.589,1.589,0,0,0,1.053-.3A1.223,1.223,0,0,0,254.956,5.593Zm3.674,1.56a1.983,1.983,0,0,0,.455,1.521,2.1,2.1,0,0,0,1.443.4A5.425,5.425,0,0,0,262.3,8.8a.894.894,0,0,1,.312-.065q.117,0,.2.156a2.148,2.148,0,0,1,.156.585.289.289,0,0,1-.208.273,5.227,5.227,0,0,1-2.314.416,2.89,2.89,0,0,1-2.327-.793,4.03,4.03,0,0,1-.663-2.6,3.841,3.841,0,0,1,.741-2.626,2.931,2.931,0,0,1,2.275-.819,3.476,3.476,0,0,1,1.365.234,1.649,1.649,0,0,1,.806.7,3.556,3.556,0,0,1,.351,1.027,9.467,9.467,0,0,1,.091,1.352.564.564,0,0,1-.117.429.418.418,0,0,1-.286.078Zm.013-1h3.276c0-.052.013-.143.013-.273a1.8,1.8,0,0,0-.312-1.17,1.509,1.509,0,0,0-1.2-.377,1.788,1.788,0,0,0-1.365.442A2.1,2.1,0,0,0,258.643,6.152Z"/>
    <path id="Path_1514" data-name="Path 1514" d="M464.005,5.372a1.946,1.946,0,0,1,1.7,2.2,2.438,2.438,0,0,1-.741,1.963,3.45,3.45,0,0,1-2.3.637,3.5,3.5,0,0,1-2.314-.611,2.394,2.394,0,0,1-.715-1.937,2.076,2.076,0,0,1,1.7-2.236,1.841,1.841,0,0,1-1.43-2.028,2.109,2.109,0,0,1,.7-1.742,3.426,3.426,0,0,1,2.132-.559,3.341,3.341,0,0,1,2.093.533,2.154,2.154,0,0,1,.65,1.742A1.9,1.9,0,0,1,464.005,5.372Zm.3-1.9a1.329,1.329,0,0,0-.364-1.027,1.934,1.934,0,0,0-1.261-.325,1.815,1.815,0,0,0-1.248.338,1.43,1.43,0,0,0-.351,1.053c0,.936.533,1.391,1.6,1.391a1.972,1.972,0,0,0,1.144-.325A1.261,1.261,0,0,0,464.3,3.474Zm.208,4.056q0-1.56-1.833-1.56c-1.235,0-1.846.52-1.846,1.56a1.435,1.435,0,0,0,.468,1.248,2.877,2.877,0,0,0,2.73-.013A1.461,1.461,0,0,0,464.512,7.53Zm6.844-2.158a1.946,1.946,0,0,1,1.7,2.2,2.438,2.438,0,0,1-.741,1.963,3.45,3.45,0,0,1-2.3.637,3.5,3.5,0,0,1-2.314-.611,2.394,2.394,0,0,1-.715-1.937,2.076,2.076,0,0,1,1.7-2.236,1.841,1.841,0,0,1-1.43-2.028,2.109,2.109,0,0,1,.7-1.742,3.426,3.426,0,0,1,2.132-.559,3.341,3.341,0,0,1,2.093.533,2.154,2.154,0,0,1,.65,1.742A1.9,1.9,0,0,1,471.356,5.372Zm.3-1.9a1.329,1.329,0,0,0-.364-1.027,1.934,1.934,0,0,0-1.261-.325,1.815,1.815,0,0,0-1.248.338,1.43,1.43,0,0,0-.351,1.053c0,.936.533,1.391,1.6,1.391a1.972,1.972,0,0,0,1.144-.325A1.261,1.261,0,0,0,471.655,3.474Zm.208,4.056q0-1.56-1.833-1.56c-1.235,0-1.846.52-1.846,1.56a1.435,1.435,0,0,0,.468,1.248,2.877,2.877,0,0,0,2.73-.013A1.46,1.46,0,0,0,471.863,7.53Zm11.1,2.158a.381.381,0,0,1-.078.273.316.316,0,0,1-.234.065h-.468a.47.47,0,0,1-.234-.039.157.157,0,0,1-.078-.156l-.039-.3a2.813,2.813,0,0,1-2.054.624,2.317,2.317,0,0,1-1.9-.767,3.861,3.861,0,0,1-.637-2.5A3.944,3.944,0,0,1,478,4.124a3.249,3.249,0,0,1,2.431-.78,3.52,3.52,0,0,1,1.365.195V.575a.272.272,0,0,1,.312-.3h.585c.182,0,.273.1.273.3ZM481.8,8.271V4.657a3.058,3.058,0,0,0-1.313-.208,2.088,2.088,0,0,0-1.638.52,3.058,3.058,0,0,0-.416,1.872,2.889,2.889,0,0,0,.377,1.716,1.529,1.529,0,0,0,1.313.507,2.6,2.6,0,0,0,1.456-.325.469.469,0,0,0,.195-.2A1.018,1.018,0,0,0,481.8,8.271Zm7.1,1.222a2.631,2.631,0,0,1-1.9.65c-1.508,0-2.249-.689-2.249-2.093a1.678,1.678,0,0,1,.806-1.573,4.063,4.063,0,0,1,2-.377,10.273,10.273,0,0,1,1.313.065V5.684a2.42,2.42,0,0,0-.091-.728q-.215-.507-1.326-.507a7.966,7.966,0,0,0-1.456.13,2.23,2.23,0,0,1-.442.078.2.2,0,0,1-.221-.182,2.568,2.568,0,0,1-.091-.585.255.255,0,0,1,.221-.273,7.912,7.912,0,0,1,2.171-.286,2.739,2.739,0,0,1,1.963.507,2.45,2.45,0,0,1,.416,1.612V9.675q0,.351-.312.351h-.455c-.208,0-.325-.065-.325-.221Zm-.026-2.431c-.39-.026-.78-.052-1.17-.052a2.823,2.823,0,0,0-1.5.286.84.84,0,0,0-.325.741,1.054,1.054,0,0,0,.3.832,1.627,1.627,0,0,0,1.092.273,2.454,2.454,0,0,0,1.313-.312.686.686,0,0,0,.221-.208.738.738,0,0,0,.065-.338Zm3.641,2.847a1.233,1.233,0,0,1-.923-1.378,1.353,1.353,0,0,1,.871-1.339,2.292,2.292,0,0,1-.481-1.586c0-1.508.871-2.275,2.613-2.275a3.909,3.909,0,0,1,1.2.182h1.7a.26.26,0,0,1,.286.286v.442a.241.241,0,0,1-.273.273h-.676a2.441,2.441,0,0,1,.208.988c0,1.573-.858,2.353-2.548,2.353a4.359,4.359,0,0,1-.923-.091c-.26-.052-.4-.091-.4-.091a.427.427,0,0,0-.286.117.663.663,0,0,0-.221.546c0,.312.117.494.364.559a11.469,11.469,0,0,0,1.859.078,4.638,4.638,0,0,1,2.327.4,1.887,1.887,0,0,1,.6,1.651,1.912,1.912,0,0,1-.741,1.651,4.364,4.364,0,0,1-2.522.546,6.563,6.563,0,0,1-1.56-.156,1.808,1.808,0,0,1-.9-.442,1.481,1.481,0,0,1-.39-.6,2.422,2.422,0,0,1-.091-.728A1.4,1.4,0,0,1,492.511,9.909Zm4.147,1.118a.784.784,0,0,0-.3-.7,3.362,3.362,0,0,0-1.313-.208c-.351,0-.728-.013-1.144-.013a1.664,1.664,0,0,0-.533.065.86.86,0,0,0-.663.923.951.951,0,0,0,.364.845,3.032,3.032,0,0,0,1.534.247,3.289,3.289,0,0,0,1.638-.273A.979.979,0,0,0,496.658,11.027Zm-.7-5.434a1.221,1.221,0,0,0-.338-.988,1.732,1.732,0,0,0-1.079-.273,1.811,1.811,0,0,0-1.079.273,1.1,1.1,0,0,0-.377.975,1.292,1.292,0,0,0,.351,1.066,1.781,1.781,0,0,0,1.092.26,1.589,1.589,0,0,0,1.053-.3A1.223,1.223,0,0,0,495.956,5.593Zm3.674,1.56a1.983,1.983,0,0,0,.455,1.521,2.1,2.1,0,0,0,1.443.4A5.425,5.425,0,0,0,503.3,8.8a.894.894,0,0,1,.312-.065q.117,0,.2.156a2.148,2.148,0,0,1,.156.585.289.289,0,0,1-.208.273,5.227,5.227,0,0,1-2.314.416,2.89,2.89,0,0,1-2.327-.793,4.03,4.03,0,0,1-.663-2.6,3.841,3.841,0,0,1,.741-2.626,2.931,2.931,0,0,1,2.275-.819,3.476,3.476,0,0,1,1.365.234,1.649,1.649,0,0,1,.806.7,3.556,3.556,0,0,1,.351,1.027,9.467,9.467,0,0,1,.091,1.352.564.564,0,0,1-.117.429.418.418,0,0,1-.286.078Zm.013-1h3.276c0-.052.013-.143.013-.273a1.8,1.8,0,0,0-.312-1.17,1.509,1.509,0,0,0-1.2-.377,1.788,1.788,0,0,0-1.365.442A2.1,2.1,0,0,0,499.643,6.152Z"/>
    <line id="Line_35" data-name="Line 35" y2="204" transform="translate(1.5 18)" fill="none" stroke="#877d7d" stroke-width="1"/>
    <line id="Line_36" data-name="Line 36" x2="504" transform="translate(1 221.5)" fill="none" stroke="#877d7d" stroke-width="1"/>
    <line id="Line_37" data-name="Line 37" y1="41" x2="112" transform="translate(126.828 161.53)" fill="none" stroke="rgba(0,133,89,0.31)" stroke-width="1"/>
    <circle id="Ellipse_31" data-name="Ellipse 31" cx="3.5" cy="3.5" r="3.5" transform="translate(123 199)" fill="#008559"/>
    <line id="Line_38" data-name="Line 38" y1="18" x2="125" transform="translate(0.929 203.505)" fill="none" stroke="rgba(0,133,89,0.31)" stroke-width="1"/>
    <circle id="Ellipse_32" data-name="Ellipse 32" cx="3.5" cy="3.5" r="3.5" transform="translate(123 199)" fill="#008559"/>
    <line id="Line_39" data-name="Line 39" y1="41" x2="112" transform="translate(240.828 119.53)" fill="none" stroke="rgba(0,133,89,0.31)" stroke-width="1"/>
    <circle id="Ellipse_33" data-name="Ellipse 33" cx="3.5" cy="3.5" r="3.5" transform="translate(237 157)" fill="#008559"/>
    <line id="Line_40" data-name="Line 40" y1="41" x2="112" transform="translate(240.828 119.53)" fill="none" stroke="rgba(0,133,89,0.31)" stroke-width="1"/>
    <circle id="Ellipse_34" data-name="Ellipse 34" cx="3.5" cy="3.5" r="3.5" transform="translate(237 157)" fill="#008559"/>
    <circle id="Ellipse_35" data-name="Ellipse 35" cx="3.5" cy="3.5" r="3.5" transform="translate(350 115)" fill="#008559"/>
    <line id="Line_41" data-name="Line 41" y1="13" x2="151" transform="translate(353.957 105.502)" fill="none" stroke="rgba(0,133,89,0.31)" stroke-width="1"/>
    <circle id="Ellipse_36" data-name="Ellipse 36" cx="3.5" cy="3.5" r="3.5" transform="translate(350 115)" fill="#008559"/>
    <rect id="Rectangle_292" data-name="Rectangle 292" width="503" height="8" transform="translate(2 17)" fill="#d9d9d9"/>
    <rect id="Rectangle_293" data-name="Rectangle 293" width="44" height="17" rx="2" transform="translate(89 174)" fill="#fff"/>
    <path id="Path_1515" data-name="Path 1515" d="M105.557,182.31a4,4,0,0,1,1.035-.153,2.055,2.055,0,0,1,1.467.441,2.02,2.02,0,0,1,.45,1.485c0,1.359-.765,2.034-2.277,2.034a4.682,4.682,0,0,1-1.44-.171c-.144-.045-.207-.117-.207-.216a1.8,1.8,0,0,1,.108-.441.159.159,0,0,1,.171-.126c.018,0,.045.009.072.009a.934.934,0,0,0,.108.027.24.24,0,0,0,.108.027,4.252,4.252,0,0,0,1.107.126,1.581,1.581,0,0,0,1.08-.3,1.22,1.22,0,0,0,.333-.936,1.125,1.125,0,0,0-.342-.945,1.763,1.763,0,0,0-1.017-.252,3.947,3.947,0,0,0-1.1.153.774.774,0,0,1-.234.045c-.135,0-.2-.072-.2-.216a1.746,1.746,0,0,1,.009-.243l.207-2.493c.009-.162.081-.252.216-.252H108c.126,0,.2.063.2.18v.414c0,.126-.072.189-.207.189h-2.3Zm4.846,2.646a.215.215,0,0,1,.243.243,3.635,3.635,0,0,1-.225,1.188,2.649,2.649,0,0,1-.567,1,.406.406,0,0,1-.261.162.476.476,0,0,1-.279-.108c-.108-.063-.153-.126-.153-.2a.311.311,0,0,1,.072-.18,3.088,3.088,0,0,0,.5-1.809q0-.3.27-.3Zm3.786-2.178a1.338,1.338,0,0,1,.927.441,1.6,1.6,0,0,1,.333,1.071,1.732,1.732,0,0,1-.522,1.377,2.511,2.511,0,0,1-1.683.45,4.4,4.4,0,0,1-1.422-.171.245.245,0,0,1-.2-.261,1.606,1.606,0,0,1,.108-.414.154.154,0,0,1,.153-.108s.108.027.306.063a3.929,3.929,0,0,0,1.053.126,2.837,2.837,0,0,0,.738-.081.815.815,0,0,0,.414-.252.913.913,0,0,0,.162-.324,1.679,1.679,0,0,0,.045-.405.993.993,0,0,0-.315-.81,1.816,1.816,0,0,0-1.107-.261h-.216c-.126,0-.18-.063-.18-.207v-.36c0-.135.054-.207.18-.207h.225a1.5,1.5,0,0,0,.963-.234.857.857,0,0,0,.288-.693.92.92,0,0,0-.252-.738,1.59,1.59,0,0,0-.945-.207,3.68,3.68,0,0,0-.945.126c-.2.054-.3.081-.306.081a.131.131,0,0,1-.144-.108,1.836,1.836,0,0,1-.09-.423c0-.09.072-.171.216-.225a4.349,4.349,0,0,1,1.431-.216,2.082,2.082,0,0,1,1.485.4,1.748,1.748,0,0,1,.387,1.251,1.292,1.292,0,0,1-.288.855A1.437,1.437,0,0,1,114.189,182.778Zm5.266.963a2.5,2.5,0,0,0,.225,1.224.959.959,0,0,0,.918.4,2.931,2.931,0,0,0,1-.144.884.884,0,0,1,.216-.054c.045,0,.09.045.126.117a1.34,1.34,0,0,1,.09.4.227.227,0,0,1-.153.207,3.418,3.418,0,0,1-1.35.234,1.824,1.824,0,0,1-1.431-.5,2.7,2.7,0,0,1-.459-1.791,2.879,2.879,0,0,1,.477-1.854,1.974,1.974,0,0,1,1.611-.585,4.049,4.049,0,0,1,1.053.117.182.182,0,0,1,.162.18,1.148,1.148,0,0,1-.081.45.152.152,0,0,1-.153.117.961.961,0,0,1-.225-.027,3.732,3.732,0,0,0-.738-.072,1.829,1.829,0,0,0-.675.108.782.782,0,0,0-.4.342,1.365,1.365,0,0,0-.171.486A3.467,3.467,0,0,0,119.455,183.741Zm4.41,2.079c0,.135-.063.2-.189.2h-.432c-.126,0-.189-.063-.189-.2V181.7a.191.191,0,0,1,.216-.216h.378a.2.2,0,0,1,.144.045.481.481,0,0,1,.054.144l.018.171a1.221,1.221,0,0,1,.63-.324,3.637,3.637,0,0,1,.873-.117c.648,0,1.044.162,1.2.486a2.168,2.168,0,0,1,1.611-.486,2.105,2.105,0,0,1,.864.135.826.826,0,0,1,.4.423,2.954,2.954,0,0,1,.09.882v2.979c0,.135-.063.2-.189.2H128.9c-.126,0-.189-.063-.189-.2v-2.772a2,2,0,0,0-.054-.558.476.476,0,0,0-.216-.243,1.411,1.411,0,0,0-.513-.072,2.672,2.672,0,0,0-1.026.189.628.628,0,0,0-.162.108.253.253,0,0,0-.054.18v.18c0,.108.009.2.009.261v2.727c0,.135-.063.2-.189.2h-.432c-.126,0-.18-.063-.18-.2v-2.772a1.914,1.914,0,0,0-.054-.558.476.476,0,0,0-.216-.243,1.411,1.411,0,0,0-.513-.072,2.594,2.594,0,0,0-1.017.189.333.333,0,0,0-.18.117.389.389,0,0,0-.054.234Z" fill="#605f5f"/>
    <rect id="Rectangle_294" data-name="Rectangle 294" width="44" height="17" rx="2" transform="translate(202 130)" fill="#fff"/>
    <path id="Path_1516" data-name="Path 1516" d="M220.618,136.69c-.387.009-1.377.009-2.979.009q-.216,0-.216-.189V136.1c0-.117.063-.18.207-.18h3.735a.164.164,0,0,1,.189.18v.234a1.1,1.1,0,0,1-.063.342c-.162.378-.378.891-.657,1.521s-.54,1.233-.774,1.8-.468,1.17-.693,1.791c-.054.162-.144.234-.27.234h-.486c-.126,0-.189-.045-.189-.153a.677.677,0,0,1,.063-.261Q219.619,138.756,220.618,136.69Zm2.785,4.266a.215.215,0,0,1,.243.243,3.635,3.635,0,0,1-.225,1.188,2.65,2.65,0,0,1-.567,1,.406.406,0,0,1-.261.162.476.476,0,0,1-.279-.108c-.108-.063-.153-.126-.153-.2a.311.311,0,0,1,.072-.18,3.088,3.088,0,0,0,.5-1.809q0-.3.27-.3Zm4.668.846c0,.144-.072.216-.2.216h-.414c-.135,0-.2-.072-.2-.216v-1.314h-2.592c-.144,0-.216-.063-.216-.2v-.324a.683.683,0,0,1,.081-.315l2.007-3.51a.351.351,0,0,1,.306-.225h.432c.1,0,.153.045.153.135a.536.536,0,0,1-.072.225q-1.08,1.917-2.007,3.429h1.908v-1.359c0-.144.063-.225.2-.225h.423q.189,0,.189.216v1.368h.729c.144,0,.216.072.216.2v.4q0,.189-.216.189h-.729Zm4.384-2.061a2.5,2.5,0,0,0,.225,1.224.959.959,0,0,0,.918.4,2.931,2.931,0,0,0,1-.144.884.884,0,0,1,.216-.054c.045,0,.09.045.126.117a1.34,1.34,0,0,1,.09.4.227.227,0,0,1-.153.207,3.418,3.418,0,0,1-1.35.234,1.824,1.824,0,0,1-1.431-.5,2.7,2.7,0,0,1-.459-1.791,2.879,2.879,0,0,1,.477-1.854,1.974,1.974,0,0,1,1.611-.585,4.049,4.049,0,0,1,1.053.117.182.182,0,0,1,.162.18,1.148,1.148,0,0,1-.081.45.152.152,0,0,1-.153.117.961.961,0,0,1-.225-.027,3.731,3.731,0,0,0-.738-.072,1.829,1.829,0,0,0-.675.108.782.782,0,0,0-.4.342,1.365,1.365,0,0,0-.171.486A3.468,3.468,0,0,0,232.455,139.741Zm4.41,2.079c0,.135-.063.2-.189.2h-.432c-.126,0-.189-.063-.189-.2V137.7a.191.191,0,0,1,.216-.216h.378a.2.2,0,0,1,.144.045.481.481,0,0,1,.054.144l.018.171a1.221,1.221,0,0,1,.63-.324,3.637,3.637,0,0,1,.873-.117c.648,0,1.044.162,1.2.486a2.168,2.168,0,0,1,1.611-.486,2.105,2.105,0,0,1,.864.135.826.826,0,0,1,.4.423,2.954,2.954,0,0,1,.09.882v2.979c0,.135-.063.2-.189.2H241.9c-.126,0-.189-.063-.189-.2v-2.772a2,2,0,0,0-.054-.558.476.476,0,0,0-.216-.243,1.411,1.411,0,0,0-.513-.072,2.672,2.672,0,0,0-1.026.189.629.629,0,0,0-.162.108.253.253,0,0,0-.054.18v.18c0,.108.009.2.009.261v2.727c0,.135-.063.2-.189.2h-.432c-.126,0-.18-.063-.18-.2v-2.772a1.914,1.914,0,0,0-.054-.558.476.476,0,0,0-.216-.243,1.411,1.411,0,0,0-.513-.072,2.594,2.594,0,0,0-1.017.189.333.333,0,0,0-.18.117.389.389,0,0,0-.054.234Z" fill="#605f5f"/>
    <path id="Path_1517" data-name="Path 1517" d="M207.678,143a7.668,7.668,0,0,1,1.982-3.931Z" fill="#008559"/>
    <path id="Path_1518" data-name="Path 1518" d="M213.689,135.251l.295,2.855a3.368,3.368,0,0,1-3.184,3.57,3.412,3.412,0,0,1-3.784-2.882,3.275,3.275,0,0,1,3.092-3.5l3.257-.293A.292.292,0,0,1,213.689,135.251Z" fill="#008559"/>
    <path id="Path_1519" data-name="Path 1519" d="M4.122,243.594c0,.28-.14.42-.392.42H2.554c-.252,0-.364-.14-.364-.42v-9.03c0-.294.112-.448.364-.448H7.79a.344.344,0,0,1,.392.378v.994c0,.224-.14.336-.392.336H4.122v2.548h3.15a.344.344,0,0,1,.392.378v1.008c0,.224-.14.336-.392.336H4.122Zm6.667.028c0,.266-.126.392-.364.392H9.263c-.238,0-.35-.126-.35-.392v-6.216c0-.294.14-.448.42-.448h1.036a.481.481,0,0,1,.28.07.306.306,0,0,1,.1.224l.028.21a1.689,1.689,0,0,1,.658-.462,2.712,2.712,0,0,1,1.022-.2,2.548,2.548,0,0,1,.588.056.357.357,0,0,1,.252.378,4.317,4.317,0,0,1-.1,1.008c-.028.154-.154.224-.35.224-.084,0-.21,0-.378-.014s-.308-.028-.364-.028a2.747,2.747,0,0,0-1.036.182.6.6,0,0,0-.238.2.658.658,0,0,0-.042.266Zm3.767.826a.4.4,0,0,1-.182.126.923.923,0,0,1-.42-.238c-.07-.056-.1-.1-.1-.154a.346.346,0,0,1,.1-.21l.448-.63a4.306,4.306,0,0,1-.742-2.87,5.894,5.894,0,0,1,.252-1.848,2.347,2.347,0,0,1,.742-1.148,3.076,3.076,0,0,1,1.064-.546,5.535,5.535,0,0,1,1.372-.154,5.17,5.17,0,0,1,1.89.28l.532-.742a.238.238,0,0,1,.182-.112.373.373,0,0,1,.182.07c.2.14.308.252.308.322a.312.312,0,0,1-.056.182l-.518.7a5.822,5.822,0,0,1-.014,5.908,3.578,3.578,0,0,1-2.6.8A4.307,4.307,0,0,1,15,243.818Zm4.032-3.948a5.7,5.7,0,0,0-.14-1.414l-2.436,3.36a1.569,1.569,0,0,0,1.008.238,1.525,1.525,0,0,0,1.218-.42A3.072,3.072,0,0,0,18.588,240.5Zm-3.094-.042a4.759,4.759,0,0,0,.112,1.246l2.352-3.248a2.148,2.148,0,0,0-.9-.154,1.486,1.486,0,0,0-1.218.448A2.926,2.926,0,0,0,15.494,240.458Zm9.68-.616a2.832,2.832,0,0,1,1.428.7,2.146,2.146,0,0,1,.406,1.428c0,1.484-.98,2.212-2.912,2.212a6.64,6.64,0,0,1-2.436-.336.348.348,0,0,1-.266-.364,3.932,3.932,0,0,1,.182-.952.351.351,0,0,1,.364-.266,1.937,1.937,0,0,1,.392.07,6.7,6.7,0,0,0,1.848.252,1.421,1.421,0,0,0,.812-.154.515.515,0,0,0,.21-.448.474.474,0,0,0-.154-.378,2.094,2.094,0,0,0-.672-.252l-1.022-.224A2.44,2.44,0,0,1,22,240.458,2.04,2.04,0,0,1,21.548,239c0-1.47.952-2.212,2.87-2.212a7.709,7.709,0,0,1,2.058.21.382.382,0,0,1,.28.364,4.171,4.171,0,0,1-.168.98.293.293,0,0,1-.294.238,2.387,2.387,0,0,1-.364-.042,8.937,8.937,0,0,0-1.526-.154,1.746,1.746,0,0,0-.812.14.442.442,0,0,0-.21.406.474.474,0,0,0,.154.406,1.574,1.574,0,0,0,.686.266Zm9.04,1.148a1.524,1.524,0,0,0,.42,1.274,1.923,1.923,0,0,0,1.246.322,6.05,6.05,0,0,0,1.834-.252.992.992,0,0,1,.364-.07.3.3,0,0,1,.28.224,3.327,3.327,0,0,1,.2.868.373.373,0,0,1-.252.364,5.775,5.775,0,0,1-2.6.462,3.082,3.082,0,0,1-2.52-.868,3.618,3.618,0,0,1-2.562.826,2.076,2.076,0,0,1-2.464-2.3,1.876,1.876,0,0,1,.8-1.722,4.337,4.337,0,0,1,2.254-.462c.308,0,.714.014,1.218.028v-.28a1.552,1.552,0,0,0-.084-.574c-.112-.266-.5-.406-1.19-.406a10.176,10.176,0,0,0-1.5.112,3.106,3.106,0,0,1-.5.07c-.168,0-.266-.084-.308-.28a3.049,3.049,0,0,1-.112-.854.387.387,0,0,1,.308-.42,8.442,8.442,0,0,1,2.352-.28c1.232,0,1.96.294,2.2.868a1.8,1.8,0,0,1,.882-.63,3.382,3.382,0,0,1,1.232-.238,4.127,4.127,0,0,1,1.568.252,1.737,1.737,0,0,1,.91.784,3.388,3.388,0,0,1,.378,1.134,11.048,11.048,0,0,1,.1,1.54c0,.224-.056.364-.154.42a.52.52,0,0,1-.322.084Zm-1.792,0c-.2-.014-.518-.028-.966-.028a2.42,2.42,0,0,0-1.26.224.739.739,0,0,0-.266.6.827.827,0,0,0,.252.672,1.311,1.311,0,0,0,.882.224,4.112,4.112,0,0,0,.91-.1,1.315,1.315,0,0,0,.644-.294A3.175,3.175,0,0,1,32.423,240.99Zm1.82-1.3h2.7c0-.056.014-.14.014-.252a1.529,1.529,0,0,0-.266-.966,1.28,1.28,0,0,0-.994-.322,1.472,1.472,0,0,0-1.12.364A1.735,1.735,0,0,0,34.243,239.688Zm8-1.134v2.8a2.357,2.357,0,0,0,.14.994c.07.168.238.252.518.252a3.43,3.43,0,0,0,.35-.014c.14-.014.238-.028.266-.028a.3.3,0,0,1,.308.28,7,7,0,0,1,.07.826.373.373,0,0,1-.35.392,5.1,5.1,0,0,1-1.162.126,1.935,1.935,0,0,1-1.638-.6,2.7,2.7,0,0,1-.378-1.652v-3.374H39.69c-.224,0-.322-.112-.322-.336v-.854a.348.348,0,0,1,.392-.392H40.4c0-.364.028-.84.056-1.456.014-.28.14-.434.378-.434H41.9c.224,0,.336.154.336.448v1.442H43.26c.252,0,.378.112.378.308v.952c0,.224-.126.322-.364.322Zm4.6,5.068c0,.266-.126.392-.364.392H45.315c-.238,0-.35-.126-.35-.392v-6.216c0-.294.14-.448.42-.448h1.008a.5.5,0,0,1,.294.07.528.528,0,0,1,.112.252l.028.21a2.19,2.19,0,0,1,.938-.5,5.04,5.04,0,0,1,1.3-.182,3.571,3.571,0,0,1,1.414.224,1.186,1.186,0,0,1,.644.658,4.465,4.465,0,0,1,.154,1.372v4.564c0,.266-.126.392-.364.392H49.753c-.238,0-.35-.126-.35-.392v-4.1a2.621,2.621,0,0,0-.07-.686c-.1-.266-.406-.406-.924-.406a3.253,3.253,0,0,0-1.19.2.6.6,0,0,0-.294.2.834.834,0,0,0-.084.406Zm8.285,0c0,.266-.126.392-.364.392H53.6c-.238,0-.35-.126-.35-.392v-6.258c0-.266.112-.406.35-.406h1.19c.224,0,.336.14.336.392Zm.1-8.834a.928.928,0,0,1-1.036,1.064,1.05,1.05,0,0,1,0-2.1,1.151,1.151,0,0,1,.77.238A1.049,1.049,0,0,1,55.224,234.788Zm3.812,8.834c0,.266-.126.392-.364.392H57.511c-.238,0-.35-.126-.35-.392v-6.216c0-.294.14-.448.42-.448h1.008a.5.5,0,0,1,.294.07.528.528,0,0,1,.112.252l.028.21a2.19,2.19,0,0,1,.938-.5,5.04,5.04,0,0,1,1.3-.182,3.571,3.571,0,0,1,1.414.224,1.186,1.186,0,0,1,.644.658,4.465,4.465,0,0,1,.154,1.372v4.564c0,.266-.126.392-.364.392H61.949c-.238,0-.35-.126-.35-.392v-4.1a2.621,2.621,0,0,0-.07-.686c-.1-.266-.406-.406-.924-.406a3.253,3.253,0,0,0-1.19.2.6.6,0,0,0-.294.2.834.834,0,0,0-.084.406Zm6.871.35a1.391,1.391,0,0,1-1.05-1.512,1.474,1.474,0,0,1,.952-1.47,2.324,2.324,0,0,1-.546-1.736c0-1.652.994-2.478,3.01-2.478a4.8,4.8,0,0,1,1.386.2h1.806c.224,0,.35.126.35.378v.784c0,.252-.112.364-.336.364h-.574a1.738,1.738,0,0,1,.126.7,2.524,2.524,0,0,1-.658,1.918,3,3,0,0,1-2.128.616,3.921,3.921,0,0,1-.84-.07c-.252-.028-.378-.056-.406-.056a.379.379,0,0,0-.266.084.506.506,0,0,0-.182.434.422.422,0,0,0,.336.462,13.638,13.638,0,0,0,1.792.056,4.9,4.9,0,0,1,2.59.476,2.247,2.247,0,0,1,.644,1.89,2.2,2.2,0,0,1-.812,1.862,4.869,4.869,0,0,1-2.828.6,9.248,9.248,0,0,1-1.5-.1,3.856,3.856,0,0,1-.98-.266,1.331,1.331,0,0,1-.574-.448,1.407,1.407,0,0,1-.28-.56,3.145,3.145,0,0,1-.056-.686A1.425,1.425,0,0,1,65.908,243.972Zm4.2,1.064a.611.611,0,0,0-.238-.56,2.768,2.768,0,0,0-1.092-.182c-.336,0-.728-.014-1.176-.014a1.489,1.489,0,0,0-.5.07.712.712,0,0,0-.462.728.7.7,0,0,0,.322.672,2.935,2.935,0,0,0,1.358.2,3.193,3.193,0,0,0,1.442-.21A.76.76,0,0,0,70.108,245.036Zm-.728-5.782a.994.994,0,0,0-.28-.812,1.877,1.877,0,0,0-1.778.028.923.923,0,0,0-.308.8.979.979,0,0,0,.294.84,1.588,1.588,0,0,0,.91.21,1.369,1.369,0,0,0,.868-.224A1.016,1.016,0,0,0,69.38,239.254Z"/>
    <path id="Path_1520" data-name="Path 1520" d="M4.24,253.112l-1.068.492a.782.782,0,0,1-.24.072.173.173,0,0,1-.168-.132,2.329,2.329,0,0,1-.228-.612.222.222,0,0,1,.156-.2l1.536-.744a.956.956,0,0,1,.432-.1h.42a.231.231,0,0,1,.252.264v7.584a.251.251,0,0,1-.276.288H4.492q-.252,0-.252-.288Zm5.309,2.664a1.623,1.623,0,0,1,.8-.66,3.115,3.115,0,0,1,1.26-.264,2.39,2.39,0,0,1,1.824.612,2.863,2.863,0,0,1,.576,1.992c0,1.8-.924,2.7-2.76,2.7a2.519,2.519,0,0,1-2.1-.852,4.686,4.686,0,0,1-.7-2.916,11.375,11.375,0,0,1,.132-1.956,4.658,4.658,0,0,1,.5-1.44,2.205,2.205,0,0,1,1.044-.936,4.178,4.178,0,0,1,1.716-.312,4.694,4.694,0,0,1,1.536.18.246.246,0,0,1,.168.264,3.99,3.99,0,0,1-.1.552.212.212,0,0,1-.228.18,1.218,1.218,0,0,1-.348-.06,5.834,5.834,0,0,0-.96-.084,3.6,3.6,0,0,0-1.032.132,1.949,1.949,0,0,0-.672.324,1.4,1.4,0,0,0-.4.624,4.217,4.217,0,0,0-.192.816C9.6,254.936,9.573,255.308,9.549,255.776Zm.048,1.212a5.45,5.45,0,0,0,.024.684,1.8,1.8,0,0,0,.456,1.1,1.629,1.629,0,0,0,1.224.384,1.724,1.724,0,0,0,1.26-.4,1.827,1.827,0,0,0,.408-1.32,1.749,1.749,0,0,0-.36-1.2,1.529,1.529,0,0,0-1.176-.4,2.5,2.5,0,0,0-1.02.2,1.566,1.566,0,0,0-.684.54A.653.653,0,0,0,9.6,256.988Zm13.525,2.724a.351.351,0,0,1-.072.252.291.291,0,0,1-.216.06H22.4a.434.434,0,0,1-.216-.036.145.145,0,0,1-.072-.144l-.036-.276a2.6,2.6,0,0,1-1.9.576,2.138,2.138,0,0,1-1.752-.708,3.564,3.564,0,0,1-.588-2.3,3.641,3.641,0,0,1,.7-2.556,3,3,0,0,1,2.244-.72,3.249,3.249,0,0,1,1.26.18V251.3a.251.251,0,0,1,.288-.276h.54c.168,0,.252.1.252.276Zm-1.08-1.308v-3.336a2.823,2.823,0,0,0-1.212-.192,1.927,1.927,0,0,0-1.512.48,2.823,2.823,0,0,0-.384,1.728,2.667,2.667,0,0,0,.348,1.584,1.411,1.411,0,0,0,1.212.468,2.4,2.4,0,0,0,1.344-.3.433.433,0,0,0,.18-.18A.94.94,0,0,0,22.042,258.4Zm6.554,1.128a2.429,2.429,0,0,1-1.752.6c-1.392,0-2.076-.636-2.076-1.932a1.549,1.549,0,0,1,.744-1.452,3.75,3.75,0,0,1,1.848-.348,9.487,9.487,0,0,1,1.212.06v-.444a2.234,2.234,0,0,0-.084-.672q-.2-.468-1.224-.468a7.355,7.355,0,0,0-1.344.12,2.056,2.056,0,0,1-.408.072.187.187,0,0,1-.2-.168,2.371,2.371,0,0,1-.084-.54.235.235,0,0,1,.2-.252,7.3,7.3,0,0,1,2-.264,2.529,2.529,0,0,1,1.812.468,2.262,2.262,0,0,1,.384,1.488v3.9q0,.324-.288.324h-.42c-.192,0-.3-.06-.3-.2Zm-.024-2.244c-.36-.024-.72-.048-1.08-.048a2.606,2.606,0,0,0-1.38.264.776.776,0,0,0-.3.684.973.973,0,0,0,.276.768,1.5,1.5,0,0,0,1.008.252,2.265,2.265,0,0,0,1.212-.288.633.633,0,0,0,.2-.192.681.681,0,0,0,.06-.312Zm3.361,2.628a1.138,1.138,0,0,1-.852-1.272,1.249,1.249,0,0,1,.8-1.236,2.116,2.116,0,0,1-.444-1.464c0-1.392.8-2.1,2.412-2.1a3.609,3.609,0,0,1,1.1.168H36.53a.24.24,0,0,1,.264.264v.408a.223.223,0,0,1-.252.252h-.624a2.253,2.253,0,0,1,.192.912c0,1.452-.792,2.172-2.352,2.172a4.024,4.024,0,0,1-.852-.084c-.24-.048-.372-.084-.372-.084a.394.394,0,0,0-.264.108.612.612,0,0,0-.2.5c0,.288.108.456.336.516a10.586,10.586,0,0,0,1.716.072,4.281,4.281,0,0,1,2.148.372,1.742,1.742,0,0,1,.552,1.524,1.765,1.765,0,0,1-.684,1.524,4.028,4.028,0,0,1-2.328.5,6.058,6.058,0,0,1-1.44-.144,1.669,1.669,0,0,1-.828-.408,1.367,1.367,0,0,1-.36-.552,2.235,2.235,0,0,1-.084-.672A1.288,1.288,0,0,1,31.934,259.916Zm3.828,1.032a.724.724,0,0,0-.276-.648,3.1,3.1,0,0,0-1.212-.192c-.324,0-.672-.012-1.056-.012a1.535,1.535,0,0,0-.492.06.794.794,0,0,0-.612.852.878.878,0,0,0,.336.78,2.8,2.8,0,0,0,1.416.228,3.036,3.036,0,0,0,1.512-.252A.9.9,0,0,0,35.762,260.948Zm-.648-5.016a1.127,1.127,0,0,0-.312-.912,1.6,1.6,0,0,0-1-.252,1.672,1.672,0,0,0-1,.252,1.019,1.019,0,0,0-.348.9,1.193,1.193,0,0,0,.324.984,1.644,1.644,0,0,0,1.008.24,1.467,1.467,0,0,0,.972-.276A1.129,1.129,0,0,0,35.114,255.932Zm3.391,1.44a1.83,1.83,0,0,0,.42,1.4,1.942,1.942,0,0,0,1.332.372,5.008,5.008,0,0,0,1.632-.252.825.825,0,0,1,.288-.06q.108,0,.18.144a1.982,1.982,0,0,1,.144.54.266.266,0,0,1-.192.252,4.825,4.825,0,0,1-2.136.384,2.668,2.668,0,0,1-2.148-.732,3.72,3.72,0,0,1-.612-2.4A3.545,3.545,0,0,1,38.1,254.6a2.706,2.706,0,0,1,2.1-.756,3.209,3.209,0,0,1,1.26.216,1.522,1.522,0,0,1,.744.648,3.284,3.284,0,0,1,.324.948,8.739,8.739,0,0,1,.084,1.248.52.52,0,0,1-.108.4.386.386,0,0,1-.264.072Zm.012-.924h3.024c0-.048.012-.132.012-.252a1.661,1.661,0,0,0-.288-1.08,1.393,1.393,0,0,0-1.1-.348,1.65,1.65,0,0,0-1.26.408A1.935,1.935,0,0,0,38.516,256.448Z" fill="rgba(0,0,0,0.68)"/>
    <path id="Path_1521" data-name="Path 1521" d="M171.808,260H166.84c-.168,0-.252-.072-.252-.228v-.48a.422.422,0,0,1,.144-.312q.09-.072.468-.36c.24-.192.42-.336.516-.408s.252-.2.468-.384.4-.324.516-.432.276-.24.456-.4.324-.312.468-.456.276-.276.408-.42a2.76,2.76,0,0,0,.768-1.872,1.555,1.555,0,0,0-.372-1.128,1.919,1.919,0,0,0-1.344-.36,4.763,4.763,0,0,0-1.368.216q-.378.108-.4.108a.175.175,0,0,1-.192-.144,3.859,3.859,0,0,1-.144-.588q0-.18.288-.288a5.822,5.822,0,0,1,2.04-.324,2.719,2.719,0,0,1,2.052.624,2.575,2.575,0,0,1,.552,1.752,3.316,3.316,0,0,1-.78,2.268,15.945,15.945,0,0,1-2.988,2.568c.468,0,1.692-.012,3.66-.012.18,0,.276.084.276.252v.552C172.084,259.916,171.988,260,171.808,260Zm5.6-4.272a1.8,1.8,0,0,1,1.572,2.028,2.25,2.25,0,0,1-.684,1.812,3.184,3.184,0,0,1-2.124.588,3.228,3.228,0,0,1-2.136-.564,2.21,2.21,0,0,1-.66-1.788,1.916,1.916,0,0,1,1.572-2.064,1.7,1.7,0,0,1-1.32-1.872,1.947,1.947,0,0,1,.648-1.608,3.163,3.163,0,0,1,1.968-.516,3.084,3.084,0,0,1,1.932.492,1.988,1.988,0,0,1,.6,1.608A1.749,1.749,0,0,1,177.4,255.728Zm.276-1.752a1.227,1.227,0,0,0-.336-.948,1.785,1.785,0,0,0-1.164-.3,1.676,1.676,0,0,0-1.152.312,1.32,1.32,0,0,0-.324.972c0,.864.492,1.284,1.476,1.284a1.82,1.82,0,0,0,1.056-.3A1.164,1.164,0,0,0,177.681,253.976Zm.192,3.744q0-1.44-1.692-1.44c-1.14,0-1.7.48-1.7,1.44a1.325,1.325,0,0,0,.432,1.152,2.655,2.655,0,0,0,2.52-.012A1.348,1.348,0,0,0,177.873,257.72Zm10.249,1.992a.351.351,0,0,1-.072.252.291.291,0,0,1-.216.06H187.4a.434.434,0,0,1-.216-.036.145.145,0,0,1-.072-.144l-.036-.276a2.6,2.6,0,0,1-1.9.576,2.139,2.139,0,0,1-1.752-.708,3.564,3.564,0,0,1-.588-2.3,3.641,3.641,0,0,1,.7-2.556,3,3,0,0,1,2.244-.72,3.249,3.249,0,0,1,1.26.18V251.3a.251.251,0,0,1,.288-.276h.54c.168,0,.252.1.252.276Zm-1.08-1.308v-3.336a2.823,2.823,0,0,0-1.212-.192,1.927,1.927,0,0,0-1.512.48,2.823,2.823,0,0,0-.384,1.728,2.667,2.667,0,0,0,.348,1.584,1.411,1.411,0,0,0,1.212.468,2.4,2.4,0,0,0,1.344-.3.433.433,0,0,0,.18-.18A.94.94,0,0,0,187.042,258.4Zm6.554,1.128a2.429,2.429,0,0,1-1.752.6c-1.392,0-2.076-.636-2.076-1.932a1.549,1.549,0,0,1,.744-1.452,3.75,3.75,0,0,1,1.848-.348,9.487,9.487,0,0,1,1.212.06v-.444a2.234,2.234,0,0,0-.084-.672q-.2-.468-1.224-.468a7.353,7.353,0,0,0-1.344.12,2.057,2.057,0,0,1-.408.072.187.187,0,0,1-.2-.168,2.371,2.371,0,0,1-.084-.54.235.235,0,0,1,.2-.252,7.3,7.3,0,0,1,2-.264,2.529,2.529,0,0,1,1.812.468,2.262,2.262,0,0,1,.384,1.488v3.9q0,.324-.288.324h-.42c-.192,0-.3-.06-.3-.2Zm-.024-2.244c-.36-.024-.72-.048-1.08-.048a2.606,2.606,0,0,0-1.38.264.776.776,0,0,0-.3.684.973.973,0,0,0,.276.768,1.5,1.5,0,0,0,1.008.252,2.265,2.265,0,0,0,1.212-.288.633.633,0,0,0,.2-.192.681.681,0,0,0,.06-.312Zm3.362,2.628a1.138,1.138,0,0,1-.852-1.272,1.249,1.249,0,0,1,.8-1.236,2.116,2.116,0,0,1-.444-1.464c0-1.392.8-2.1,2.412-2.1a3.609,3.609,0,0,1,1.1.168h1.572a.24.24,0,0,1,.264.264v.408a.223.223,0,0,1-.252.252h-.624a2.254,2.254,0,0,1,.192.912c0,1.452-.792,2.172-2.352,2.172a4.024,4.024,0,0,1-.852-.084c-.24-.048-.372-.084-.372-.084a.394.394,0,0,0-.264.108.612.612,0,0,0-.2.5c0,.288.108.456.336.516a10.586,10.586,0,0,0,1.716.072,4.281,4.281,0,0,1,2.148.372,1.742,1.742,0,0,1,.552,1.524,1.765,1.765,0,0,1-.684,1.524,4.028,4.028,0,0,1-2.328.5,6.058,6.058,0,0,1-1.44-.144,1.669,1.669,0,0,1-.828-.408,1.367,1.367,0,0,1-.36-.552,2.235,2.235,0,0,1-.084-.672A1.288,1.288,0,0,1,196.934,259.916Zm3.828,1.032a.724.724,0,0,0-.276-.648,3.1,3.1,0,0,0-1.212-.192c-.324,0-.672-.012-1.056-.012a1.536,1.536,0,0,0-.492.06.794.794,0,0,0-.612.852.878.878,0,0,0,.336.78,2.8,2.8,0,0,0,1.416.228,3.036,3.036,0,0,0,1.512-.252A.9.9,0,0,0,200.762,260.948Zm-.648-5.016a1.127,1.127,0,0,0-.312-.912,1.6,1.6,0,0,0-1-.252,1.672,1.672,0,0,0-1,.252,1.019,1.019,0,0,0-.348.9,1.193,1.193,0,0,0,.324.984,1.644,1.644,0,0,0,1.008.24,1.467,1.467,0,0,0,.972-.276A1.129,1.129,0,0,0,200.114,255.932Zm3.391,1.44a1.83,1.83,0,0,0,.42,1.4,1.942,1.942,0,0,0,1.332.372,5.008,5.008,0,0,0,1.632-.252.825.825,0,0,1,.288-.06q.108,0,.18.144a1.982,1.982,0,0,1,.144.54.266.266,0,0,1-.192.252,4.825,4.825,0,0,1-2.136.384,2.668,2.668,0,0,1-2.148-.732,3.72,3.72,0,0,1-.612-2.4,3.545,3.545,0,0,1,.684-2.424,2.706,2.706,0,0,1,2.1-.756,3.209,3.209,0,0,1,1.26.216,1.522,1.522,0,0,1,.744.648,3.284,3.284,0,0,1,.324.948,8.738,8.738,0,0,1,.084,1.248.52.52,0,0,1-.108.4.386.386,0,0,1-.264.072Zm.012-.924h3.024c0-.048.012-.132.012-.252a1.661,1.661,0,0,0-.288-1.08,1.393,1.393,0,0,0-1.1-.348,1.65,1.65,0,0,0-1.26.408A1.935,1.935,0,0,0,203.517,256.448Z" fill="rgba(0,0,0,0.68)"/>
    <path id="Path_1522" data-name="Path 1522" d="M301.14,255.7a1.784,1.784,0,0,1,1.236.588,2.14,2.14,0,0,1,.444,1.428,2.309,2.309,0,0,1-.7,1.836,3.348,3.348,0,0,1-2.244.6,5.873,5.873,0,0,1-1.9-.228.327.327,0,0,1-.264-.348,2.14,2.14,0,0,1,.144-.552.2.2,0,0,1,.2-.144s.144.036.408.084a5.237,5.237,0,0,0,1.4.168,3.783,3.783,0,0,0,.984-.108,1.086,1.086,0,0,0,.552-.336,1.216,1.216,0,0,0,.216-.432,2.238,2.238,0,0,0,.06-.54,1.324,1.324,0,0,0-.42-1.08,2.421,2.421,0,0,0-1.476-.348h-.288c-.168,0-.24-.084-.24-.276v-.48c0-.18.072-.276.24-.276h.3a2,2,0,0,0,1.284-.312,1.143,1.143,0,0,0,.384-.924,1.227,1.227,0,0,0-.336-.984,2.12,2.12,0,0,0-1.26-.276,4.907,4.907,0,0,0-1.26.168c-.264.072-.4.108-.408.108a.175.175,0,0,1-.192-.144,2.449,2.449,0,0,1-.12-.564c0-.12.1-.228.288-.3a5.8,5.8,0,0,1,1.908-.288,2.776,2.776,0,0,1,1.98.528,2.331,2.331,0,0,1,.516,1.668,1.723,1.723,0,0,1-.384,1.14A1.917,1.917,0,0,1,301.14,255.7Zm7.961,4.032c0,.192-.1.288-.264.288h-.552c-.18,0-.264-.1-.264-.288v-1.752h-3.456c-.192,0-.288-.084-.288-.264v-.432a.911.911,0,0,1,.108-.42l2.676-4.68a.468.468,0,0,1,.408-.3h.576c.132,0,.2.06.2.18a.714.714,0,0,1-.1.3q-1.44,2.556-2.676,4.572h2.544v-1.812c0-.192.084-.3.264-.3h.564q.252,0,.252.288v1.824h.972c.192,0,.288.1.288.264v.528q0,.252-.288.252H309.1Zm10.021-.024a.351.351,0,0,1-.072.252.291.291,0,0,1-.216.06H318.4a.434.434,0,0,1-.216-.036.145.145,0,0,1-.072-.144l-.036-.276a2.6,2.6,0,0,1-1.9.576,2.138,2.138,0,0,1-1.752-.708,3.564,3.564,0,0,1-.588-2.3,3.641,3.641,0,0,1,.7-2.556,3,3,0,0,1,2.244-.72,3.249,3.249,0,0,1,1.26.18V251.3a.251.251,0,0,1,.288-.276h.54c.168,0,.252.1.252.276Zm-1.08-1.308v-3.336a2.823,2.823,0,0,0-1.212-.192,1.927,1.927,0,0,0-1.512.48,2.823,2.823,0,0,0-.384,1.728,2.666,2.666,0,0,0,.348,1.584,1.411,1.411,0,0,0,1.212.468,2.4,2.4,0,0,0,1.344-.3.433.433,0,0,0,.18-.18A.941.941,0,0,0,318.042,258.4Zm6.554,1.128a2.429,2.429,0,0,1-1.752.6c-1.392,0-2.076-.636-2.076-1.932a1.549,1.549,0,0,1,.744-1.452,3.75,3.75,0,0,1,1.848-.348,9.487,9.487,0,0,1,1.212.06v-.444a2.234,2.234,0,0,0-.084-.672q-.2-.468-1.224-.468a7.352,7.352,0,0,0-1.344.12,2.057,2.057,0,0,1-.408.072.187.187,0,0,1-.2-.168,2.369,2.369,0,0,1-.084-.54.235.235,0,0,1,.2-.252,7.3,7.3,0,0,1,2-.264,2.529,2.529,0,0,1,1.812.468,2.261,2.261,0,0,1,.384,1.488v3.9q0,.324-.288.324h-.42c-.192,0-.3-.06-.3-.2Zm-.024-2.244c-.36-.024-.72-.048-1.08-.048a2.606,2.606,0,0,0-1.38.264.776.776,0,0,0-.3.684.973.973,0,0,0,.276.768,1.5,1.5,0,0,0,1.008.252,2.265,2.265,0,0,0,1.212-.288.634.634,0,0,0,.2-.192.681.681,0,0,0,.06-.312Zm3.362,2.628a1.138,1.138,0,0,1-.852-1.272,1.249,1.249,0,0,1,.8-1.236,2.116,2.116,0,0,1-.444-1.464c0-1.392.8-2.1,2.412-2.1a3.609,3.609,0,0,1,1.1.168h1.572a.24.24,0,0,1,.264.264v.408a.223.223,0,0,1-.252.252h-.624a2.254,2.254,0,0,1,.192.912c0,1.452-.792,2.172-2.352,2.172a4.024,4.024,0,0,1-.852-.084c-.24-.048-.372-.084-.372-.084a.394.394,0,0,0-.264.108.612.612,0,0,0-.2.5c0,.288.108.456.336.516a10.586,10.586,0,0,0,1.716.072,4.281,4.281,0,0,1,2.148.372,1.742,1.742,0,0,1,.552,1.524,1.765,1.765,0,0,1-.684,1.524,4.028,4.028,0,0,1-2.328.5,6.058,6.058,0,0,1-1.44-.144,1.669,1.669,0,0,1-.828-.408,1.367,1.367,0,0,1-.36-.552,2.235,2.235,0,0,1-.084-.672A1.288,1.288,0,0,1,327.934,259.916Zm3.828,1.032a.724.724,0,0,0-.276-.648,3.1,3.1,0,0,0-1.212-.192c-.324,0-.672-.012-1.056-.012a1.535,1.535,0,0,0-.492.06.794.794,0,0,0-.612.852.878.878,0,0,0,.336.78,2.8,2.8,0,0,0,1.416.228,3.036,3.036,0,0,0,1.512-.252A.9.9,0,0,0,331.762,260.948Zm-.648-5.016a1.127,1.127,0,0,0-.312-.912,1.6,1.6,0,0,0-1-.252,1.672,1.672,0,0,0-1,.252,1.019,1.019,0,0,0-.348.9,1.193,1.193,0,0,0,.324.984,1.644,1.644,0,0,0,1.008.24,1.467,1.467,0,0,0,.972-.276A1.129,1.129,0,0,0,331.114,255.932Zm3.391,1.44a1.83,1.83,0,0,0,.42,1.4,1.942,1.942,0,0,0,1.332.372,5.008,5.008,0,0,0,1.632-.252.824.824,0,0,1,.288-.06q.108,0,.18.144a1.982,1.982,0,0,1,.144.54.266.266,0,0,1-.192.252,4.825,4.825,0,0,1-2.136.384,2.668,2.668,0,0,1-2.148-.732,3.72,3.72,0,0,1-.612-2.4,3.545,3.545,0,0,1,.684-2.424,2.706,2.706,0,0,1,2.1-.756,3.209,3.209,0,0,1,1.26.216,1.522,1.522,0,0,1,.744.648,3.284,3.284,0,0,1,.324.948,8.738,8.738,0,0,1,.084,1.248.52.52,0,0,1-.108.4.386.386,0,0,1-.264.072Zm.012-.924h3.024c0-.048.012-.132.012-.252a1.661,1.661,0,0,0-.288-1.08,1.393,1.393,0,0,0-1.1-.348,1.65,1.65,0,0,0-1.26.408A1.935,1.935,0,0,0,334.517,256.448Z" fill="#877d7d"/>
    <path id="Path_1523" data-name="Path 1523" d="M465.24,253.112l-1.068.492a.782.782,0,0,1-.24.072.173.173,0,0,1-.168-.132,2.329,2.329,0,0,1-.228-.612.222.222,0,0,1,.156-.2l1.536-.744a.956.956,0,0,1,.432-.1h.42a.231.231,0,0,1,.252.264v7.584a.251.251,0,0,1-.276.288h-.564q-.252,0-.252-.288Zm9.821,2.76a8.833,8.833,0,0,1-.312,2.64,2.279,2.279,0,0,1-.924,1.3,4.181,4.181,0,0,1-3.312.012,2.215,2.215,0,0,1-.912-1.272,8.271,8.271,0,0,1-.312-2.592,9.006,9.006,0,0,1,.2-2.136,2.852,2.852,0,0,1,.636-1.3,2.355,2.355,0,0,1,.912-.612,3.937,3.937,0,0,1,1.212-.168,4.68,4.68,0,0,1,1.284.156,1.887,1.887,0,0,1,.852.6,2.776,2.776,0,0,1,.516,1.26A12.365,12.365,0,0,1,475.061,255.872Zm-1.116.012a8.31,8.31,0,0,0-.18-1.992,1.478,1.478,0,0,0-.528-.9,1.993,1.993,0,0,0-1.032-.228,1.84,1.84,0,0,0-1.008.24,1.654,1.654,0,0,0-.576.936,7.246,7.246,0,0,0-.216,2,7.522,7.522,0,0,0,.2,2.064,1.471,1.471,0,0,0,.552.924,1.9,1.9,0,0,0,1,.2,2.532,2.532,0,0,0,.816-.108,1.217,1.217,0,0,0,.54-.444,2.536,2.536,0,0,0,.336-1A12.7,12.7,0,0,0,473.945,255.884Zm10.177,3.828a.351.351,0,0,1-.072.252.291.291,0,0,1-.216.06H483.4a.434.434,0,0,1-.216-.036.145.145,0,0,1-.072-.144l-.036-.276a2.6,2.6,0,0,1-1.9.576,2.138,2.138,0,0,1-1.752-.708,3.564,3.564,0,0,1-.588-2.3,3.641,3.641,0,0,1,.7-2.556,3,3,0,0,1,2.244-.72,3.249,3.249,0,0,1,1.26.18V251.3a.251.251,0,0,1,.288-.276h.54c.168,0,.252.1.252.276Zm-1.08-1.308v-3.336a2.823,2.823,0,0,0-1.212-.192,1.927,1.927,0,0,0-1.512.48,2.823,2.823,0,0,0-.384,1.728,2.666,2.666,0,0,0,.348,1.584,1.411,1.411,0,0,0,1.212.468,2.4,2.4,0,0,0,1.344-.3.433.433,0,0,0,.18-.18A.941.941,0,0,0,483.042,258.4Zm6.554,1.128a2.429,2.429,0,0,1-1.752.6c-1.392,0-2.076-.636-2.076-1.932a1.549,1.549,0,0,1,.744-1.452,3.75,3.75,0,0,1,1.848-.348,9.487,9.487,0,0,1,1.212.06v-.444a2.234,2.234,0,0,0-.084-.672q-.2-.468-1.224-.468a7.352,7.352,0,0,0-1.344.12,2.057,2.057,0,0,1-.408.072.187.187,0,0,1-.2-.168,2.369,2.369,0,0,1-.084-.54.235.235,0,0,1,.2-.252,7.3,7.3,0,0,1,2-.264,2.529,2.529,0,0,1,1.812.468,2.261,2.261,0,0,1,.384,1.488v3.9q0,.324-.288.324h-.42c-.192,0-.3-.06-.3-.2Zm-.024-2.244c-.36-.024-.72-.048-1.08-.048a2.606,2.606,0,0,0-1.38.264.776.776,0,0,0-.3.684.973.973,0,0,0,.276.768,1.5,1.5,0,0,0,1.008.252,2.265,2.265,0,0,0,1.212-.288.634.634,0,0,0,.2-.192.681.681,0,0,0,.06-.312Zm3.362,2.628a1.138,1.138,0,0,1-.852-1.272,1.249,1.249,0,0,1,.8-1.236,2.116,2.116,0,0,1-.444-1.464c0-1.392.8-2.1,2.412-2.1a3.609,3.609,0,0,1,1.1.168h1.572a.24.24,0,0,1,.264.264v.408a.223.223,0,0,1-.252.252h-.624a2.254,2.254,0,0,1,.192.912c0,1.452-.792,2.172-2.352,2.172a4.024,4.024,0,0,1-.852-.084c-.24-.048-.372-.084-.372-.084a.394.394,0,0,0-.264.108.612.612,0,0,0-.2.5c0,.288.108.456.336.516a10.586,10.586,0,0,0,1.716.072,4.281,4.281,0,0,1,2.148.372,1.742,1.742,0,0,1,.552,1.524,1.765,1.765,0,0,1-.684,1.524,4.028,4.028,0,0,1-2.328.5,6.058,6.058,0,0,1-1.44-.144,1.669,1.669,0,0,1-.828-.408,1.367,1.367,0,0,1-.36-.552,2.235,2.235,0,0,1-.084-.672A1.288,1.288,0,0,1,492.934,259.916Zm3.828,1.032a.724.724,0,0,0-.276-.648,3.1,3.1,0,0,0-1.212-.192c-.324,0-.672-.012-1.056-.012a1.535,1.535,0,0,0-.492.06.794.794,0,0,0-.612.852.878.878,0,0,0,.336.78,2.8,2.8,0,0,0,1.416.228,3.036,3.036,0,0,0,1.512-.252A.9.9,0,0,0,496.762,260.948Zm-.648-5.016a1.127,1.127,0,0,0-.312-.912,1.6,1.6,0,0,0-1-.252,1.672,1.672,0,0,0-1,.252,1.019,1.019,0,0,0-.348.9,1.193,1.193,0,0,0,.324.984,1.644,1.644,0,0,0,1.008.24,1.467,1.467,0,0,0,.972-.276A1.129,1.129,0,0,0,496.114,255.932Zm3.391,1.44a1.83,1.83,0,0,0,.42,1.4,1.942,1.942,0,0,0,1.332.372,5.008,5.008,0,0,0,1.632-.252.824.824,0,0,1,.288-.06q.108,0,.18.144a1.982,1.982,0,0,1,.144.54.266.266,0,0,1-.192.252,4.825,4.825,0,0,1-2.136.384,2.668,2.668,0,0,1-2.148-.732,3.72,3.72,0,0,1-.612-2.4,3.545,3.545,0,0,1,.684-2.424,2.706,2.706,0,0,1,2.1-.756,3.209,3.209,0,0,1,1.26.216,1.522,1.522,0,0,1,.744.648,3.284,3.284,0,0,1,.324.948,8.738,8.738,0,0,1,.084,1.248.52.52,0,0,1-.108.4.386.386,0,0,1-.264.072Zm.012-.924h3.024c0-.048.012-.132.012-.252a1.661,1.661,0,0,0-.288-1.08,1.393,1.393,0,0,0-1.1-.348,1.65,1.65,0,0,0-1.26.408A1.935,1.935,0,0,0,499.517,256.448Z" fill="#877d7d"/>
    <path id="Path_1524" data-name="Path 1524" d="M171.11,238.3a3.874,3.874,0,0,1,1.862.952,2.76,2.76,0,0,1,.5,1.834,3.009,3.009,0,0,1-.854,2.3,4.1,4.1,0,0,1-2.856.8,8.112,8.112,0,0,1-2.926-.434.467.467,0,0,1-.336-.476,3.333,3.333,0,0,1,.168-.8.427.427,0,0,1,.448-.364,1.96,1.96,0,0,1,.5.112,7.158,7.158,0,0,0,2.212.308,1.982,1.982,0,0,0,1.316-.308,1.2,1.2,0,0,0,.322-.882,1.137,1.137,0,0,0-.252-.8,2.355,2.355,0,0,0-1.078-.476l-1.2-.28a2.872,2.872,0,0,1-1.708-.952,3.445,3.445,0,0,1,.294-4.116,3.982,3.982,0,0,1,2.758-.784,8.546,8.546,0,0,1,2.52.308.45.45,0,0,1,.322.476,3.715,3.715,0,0,1-.126.812c-.07.224-.2.322-.364.322a1.565,1.565,0,0,1-.476-.07,10.929,10.929,0,0,0-2.016-.2,1.726,1.726,0,0,0-1.162.308,1.134,1.134,0,0,0-.308.868,1.184,1.184,0,0,0,.224.756,1.806,1.806,0,0,0,.98.476ZM177.06,247a.381.381,0,0,1-.434.42h-1.078a.372.372,0,0,1-.28-.084.486.486,0,0,1-.084-.336v-9.548a.581.581,0,0,1,.1-.378.475.475,0,0,1,.35-.112h.9c.308,0,.476.112.49.308l.014.2a2.912,2.912,0,0,1,2.114-.644,2.35,2.35,0,0,1,1.96.8,4.6,4.6,0,0,1,.644,2.786,6.821,6.821,0,0,1-.21,1.862,2.472,2.472,0,0,1-.644,1.148,2.4,2.4,0,0,1-1.05.56,5.842,5.842,0,0,1-1.512.154,2.987,2.987,0,0,1-1.274-.2Zm0-4.55a2.866,2.866,0,0,0,1.05.154,1.675,1.675,0,0,0,1.4-.448,3.2,3.2,0,0,0,.35-1.764,2.984,2.984,0,0,0-.28-1.526,1.2,1.2,0,0,0-1.078-.42,2.616,2.616,0,0,0-1.246.238.327.327,0,0,0-.168.168.661.661,0,0,0-.028.266Zm8.176,1.176c0,.266-.126.392-.364.392H183.71c-.238,0-.35-.126-.35-.392v-6.258c0-.266.112-.406.35-.406h1.19c.224,0,.336.14.336.392Zm.1-8.834a.928.928,0,0,1-1.036,1.064,1.05,1.05,0,0,1,0-2.1,1.151,1.151,0,0,1,.77.238A1.049,1.049,0,0,1,185.334,234.788Zm3.812,8.834c0,.266-.126.392-.364.392H187.62c-.238,0-.35-.126-.35-.392v-6.216c0-.294.14-.448.42-.448h1.036a.481.481,0,0,1,.28.07.306.306,0,0,1,.1.224l.028.21a1.689,1.689,0,0,1,.658-.462,2.712,2.712,0,0,1,1.022-.2,2.548,2.548,0,0,1,.588.056.357.357,0,0,1,.252.378,4.317,4.317,0,0,1-.1,1.008c-.028.154-.154.224-.35.224-.084,0-.21,0-.378-.014s-.308-.028-.364-.028a2.747,2.747,0,0,0-1.036.182.6.6,0,0,0-.238.2.658.658,0,0,0-.042.266Zm4.775-2.548a1.487,1.487,0,0,0,.392,1.2,1.9,1.9,0,0,0,1.218.308,6.305,6.305,0,0,0,1.89-.252.839.839,0,0,1,.364-.07.3.3,0,0,1,.28.224,3.722,3.722,0,0,1,.2.868.38.38,0,0,1-.238.364,5.963,5.963,0,0,1-2.66.462,3.3,3.3,0,0,1-2.618-.854,4.32,4.32,0,0,1-.728-2.814,4.12,4.12,0,0,1,.812-2.856,3.3,3.3,0,0,1,2.562-.882,4.585,4.585,0,0,1,1.344.182,2.424,2.424,0,0,1,.868.476,1.943,1.943,0,0,1,.49.812,4.628,4.628,0,0,1,.224,1.022c.028.336.056.742.056,1.246,0,.252-.056.406-.154.476a.6.6,0,0,1-.336.084Zm.028-1.372h2.632c0-.028.014-.112.014-.238a1.615,1.615,0,0,0-.252-1.008,1.256,1.256,0,0,0-.98-.308,1.348,1.348,0,0,0-1.078.364A1.914,1.914,0,0,0,193.949,239.7Z"/>
    <path id="Path_1525" data-name="Path 1525" d="M300.976,244h-2.352a.38.38,0,0,1-.434-.434V234.55c0-.28.126-.434.406-.434h2.464a13.31,13.31,0,0,1,1.512.084,2.854,2.854,0,0,1,1.778.714,2.226,2.226,0,0,1,.588,1.652,2.729,2.729,0,0,1-.35,1.456,2.024,2.024,0,0,1-1.106.8,2.321,2.321,0,0,1,1.316.77,2.957,2.957,0,0,1-.966,4.088A8.48,8.48,0,0,1,300.976,244Zm-.854-1.652h1.008a4.3,4.3,0,0,0,1.414-.154,1.171,1.171,0,0,0,.728-1.246,1.1,1.1,0,0,0-.742-1.12,4.21,4.21,0,0,0-1.274-.126h-1.134Zm0-4.256h1.05a3.676,3.676,0,0,0,1.134-.1,1.26,1.26,0,0,0,.476-1.82,1.457,1.457,0,0,0-.6-.35,4.874,4.874,0,0,0-1.134-.1h-.924Zm8.7,5.53c0,.266-.126.392-.364.392H307.3c-.238,0-.35-.126-.35-.392v-9.7c0-.252.112-.392.364-.392h1.176c.224,0,.336.14.336.392Zm8.334-3.192a4.164,4.164,0,0,1-.812,2.954,3.578,3.578,0,0,1-2.6.8,3.473,3.473,0,0,1-2.548-.784,4.094,4.094,0,0,1-.784-2.926,5.894,5.894,0,0,1,.252-1.848,2.347,2.347,0,0,1,.742-1.148,3.075,3.075,0,0,1,1.064-.546,5.535,5.535,0,0,1,1.372-.154,6.823,6.823,0,0,1,1.456.14,2.478,2.478,0,0,1,1.008.518,2.173,2.173,0,0,1,.658,1.106A7.748,7.748,0,0,1,317.16,240.43Zm-1.876.07a3.261,3.261,0,0,0-.294-1.694,1.4,1.4,0,0,0-1.176-.406,1.419,1.419,0,0,0-1.162.434,2.647,2.647,0,0,0-.35,1.624,2.965,2.965,0,0,0,.322,1.708,1.348,1.348,0,0,0,1.148.42,1.412,1.412,0,0,0,1.162-.406A2.809,2.809,0,0,0,315.284,240.5Zm5.354,3.122c0,.266-.126.392-.364.392h-1.162c-.238,0-.35-.126-.35-.392v-6.216c0-.294.14-.448.42-.448h1.008a.5.5,0,0,1,.294.07.528.528,0,0,1,.112.252l.028.21a2.1,2.1,0,0,1,.9-.5,4.521,4.521,0,0,1,1.232-.182c1.036,0,1.694.252,1.946.728a3.373,3.373,0,0,1,2.324-.728,3.542,3.542,0,0,1,1.4.224,1.233,1.233,0,0,1,.644.658,4.465,4.465,0,0,1,.154,1.372v4.564c0,.266-.126.392-.364.392h-1.162c-.252,0-.364-.126-.364-.392v-4.1a3.233,3.233,0,0,0-.056-.686c-.084-.266-.392-.406-.91-.406a3.049,3.049,0,0,0-1.064.2,1.007,1.007,0,0,0-.294.168.329.329,0,0,0-.1.266v.21c0,.126.014.224.014.28v4.074c0,.266-.126.392-.35.392H323.4c-.224,0-.336-.126-.336-.392v-4.1a2.62,2.62,0,0,0-.07-.686c-.084-.266-.392-.406-.9-.406a3.235,3.235,0,0,0-1.064.2.775.775,0,0,0-.308.182.764.764,0,0,0-.084.406Zm13.607-3.78a2.832,2.832,0,0,1,1.428.7,2.146,2.146,0,0,1,.406,1.428c0,1.484-.98,2.212-2.912,2.212a6.641,6.641,0,0,1-2.436-.336.348.348,0,0,1-.266-.364,3.932,3.932,0,0,1,.182-.952.351.351,0,0,1,.364-.266,1.937,1.937,0,0,1,.392.07,6.694,6.694,0,0,0,1.848.252,1.421,1.421,0,0,0,.812-.154.515.515,0,0,0,.21-.448.474.474,0,0,0-.154-.378,2.094,2.094,0,0,0-.672-.252l-1.022-.224a2.44,2.44,0,0,1-1.358-.672,2.04,2.04,0,0,1-.448-1.456c0-1.47.952-2.212,2.87-2.212a7.709,7.709,0,0,1,2.058.21.382.382,0,0,1,.28.364,4.171,4.171,0,0,1-.168.98.293.293,0,0,1-.294.238,2.387,2.387,0,0,1-.364-.042,8.937,8.937,0,0,0-1.526-.154,1.746,1.746,0,0,0-.812.14.442.442,0,0,0-.21.406.474.474,0,0,0,.154.406,1.574,1.574,0,0,0,.686.266Zm5.346-1.288v2.8a2.357,2.357,0,0,0,.14.994c.07.168.238.252.518.252a3.43,3.43,0,0,0,.35-.014c.14-.014.238-.028.266-.028a.3.3,0,0,1,.308.28,7,7,0,0,1,.07.826.373.373,0,0,1-.35.392,5.1,5.1,0,0,1-1.162.126,1.935,1.935,0,0,1-1.638-.6,2.7,2.7,0,0,1-.378-1.652v-3.374h-.672c-.224,0-.322-.112-.322-.336v-.854a.348.348,0,0,1,.392-.392h.644c0-.364.028-.84.056-1.456.014-.28.14-.434.378-.434h1.064c.224,0,.336.154.336.448v1.442h1.022c.252,0,.378.112.378.308v.952c0,.224-.126.322-.364.322Zm4.6,5.068c0,.266-.126.392-.364.392h-1.162c-.238,0-.35-.126-.35-.392v-6.216c0-.294.14-.448.42-.448h1.036a.481.481,0,0,1,.28.07.306.306,0,0,1,.1.224l.028.21a1.689,1.689,0,0,1,.658-.462,2.712,2.712,0,0,1,1.022-.2,2.548,2.548,0,0,1,.588.056.357.357,0,0,1,.252.378,4.317,4.317,0,0,1-.1,1.008c-.028.154-.154.224-.35.224-.084,0-.21,0-.378-.014s-.308-.028-.364-.028a2.747,2.747,0,0,0-1.036.182.6.6,0,0,0-.238.2.658.658,0,0,0-.042.266Zm5.523,0c0,.266-.126.392-.364.392h-1.162c-.238,0-.35-.126-.35-.392v-6.258c0-.266.112-.406.35-.406h1.19c.224,0,.336.14.336.392Zm.1-8.834a.928.928,0,0,1-1.036,1.064,1.05,1.05,0,0,1,0-2.1,1.151,1.151,0,0,1,.77.238A1.049,1.049,0,0,1,349.816,234.788Zm3.812,8.834c0,.266-.126.392-.364.392H352.1c-.238,0-.35-.126-.35-.392v-6.216c0-.294.14-.448.42-.448h1.008a.5.5,0,0,1,.294.07.527.527,0,0,1,.112.252l.028.21a2.19,2.19,0,0,1,.938-.5,5.04,5.04,0,0,1,1.3-.182,3.571,3.571,0,0,1,1.414.224,1.186,1.186,0,0,1,.644.658,4.464,4.464,0,0,1,.154,1.372v4.564c0,.266-.126.392-.364.392H356.54c-.238,0-.35-.126-.35-.392v-4.1a2.621,2.621,0,0,0-.07-.686c-.1-.266-.406-.406-.924-.406a3.253,3.253,0,0,0-1.19.2.6.6,0,0,0-.294.2.834.834,0,0,0-.084.406Zm6.872.35a1.391,1.391,0,0,1-1.05-1.512,1.474,1.474,0,0,1,.952-1.47,2.324,2.324,0,0,1-.546-1.736c0-1.652.994-2.478,3.01-2.478a4.8,4.8,0,0,1,1.386.2h1.806c.224,0,.35.126.35.378v.784c0,.252-.112.364-.336.364H365.5a1.738,1.738,0,0,1,.126.7,2.524,2.524,0,0,1-.658,1.918,3,3,0,0,1-2.128.616,3.921,3.921,0,0,1-.84-.07c-.252-.028-.378-.056-.406-.056a.379.379,0,0,0-.266.084.506.506,0,0,0-.182.434.422.422,0,0,0,.336.462,13.638,13.638,0,0,0,1.792.056,4.9,4.9,0,0,1,2.59.476,2.247,2.247,0,0,1,.644,1.89,2.2,2.2,0,0,1-.812,1.862,4.869,4.869,0,0,1-2.828.6,9.248,9.248,0,0,1-1.5-.1,3.856,3.856,0,0,1-.98-.266,1.331,1.331,0,0,1-.574-.448,1.407,1.407,0,0,1-.28-.56,3.145,3.145,0,0,1-.056-.686A1.425,1.425,0,0,1,360.5,243.972Zm4.2,1.064a.611.611,0,0,0-.238-.56,2.768,2.768,0,0,0-1.092-.182c-.336,0-.728-.014-1.176-.014a1.489,1.489,0,0,0-.5.07.712.712,0,0,0-.462.728.7.7,0,0,0,.322.672,2.935,2.935,0,0,0,1.358.2,3.193,3.193,0,0,0,1.442-.21A.76.76,0,0,0,364.7,245.036Zm-.728-5.782a.994.994,0,0,0-.28-.812,1.877,1.877,0,0,0-1.778.028.923.923,0,0,0-.308.8.979.979,0,0,0,.294.84,1.588,1.588,0,0,0,.91.21,1.369,1.369,0,0,0,.868-.224A1.016,1.016,0,0,0,363.972,239.254Z" fill="rgba(0,0,0,0.28)"/>
    <path id="Path_1526" data-name="Path 1526" d="M465.122,243.594c0,.28-.14.42-.392.42h-1.176c-.252,0-.364-.14-.364-.42v-9.03c0-.294.112-.448.364-.448h5.236a.344.344,0,0,1,.392.378v.994c0,.224-.14.336-.392.336h-3.668v2.548h3.15a.344.344,0,0,1,.392.378v1.008c0,.224-.14.336-.392.336h-3.15Zm10.5-2.6a1.524,1.524,0,0,0,.42,1.274,1.923,1.923,0,0,0,1.246.322,6.05,6.05,0,0,0,1.834-.252.992.992,0,0,1,.364-.07.3.3,0,0,1,.28.224,3.326,3.326,0,0,1,.2.868.373.373,0,0,1-.252.364,5.775,5.775,0,0,1-2.6.462,3.082,3.082,0,0,1-2.52-.868,3.618,3.618,0,0,1-2.562.826,2.076,2.076,0,0,1-2.464-2.3,1.876,1.876,0,0,1,.8-1.722,4.337,4.337,0,0,1,2.254-.462c.308,0,.714.014,1.218.028v-.28a1.552,1.552,0,0,0-.084-.574c-.112-.266-.5-.406-1.19-.406a10.176,10.176,0,0,0-1.5.112,3.106,3.106,0,0,1-.5.07c-.168,0-.266-.084-.308-.28a3.049,3.049,0,0,1-.112-.854.387.387,0,0,1,.308-.42,8.442,8.442,0,0,1,2.352-.28c1.232,0,1.96.294,2.2.868a1.8,1.8,0,0,1,.882-.63,3.382,3.382,0,0,1,1.232-.238,4.127,4.127,0,0,1,1.568.252,1.737,1.737,0,0,1,.91.784,3.388,3.388,0,0,1,.378,1.134,11.048,11.048,0,0,1,.1,1.54c0,.224-.056.364-.154.42a.52.52,0,0,1-.322.084Zm-1.792,0c-.2-.014-.518-.028-.966-.028a2.42,2.42,0,0,0-1.26.224.739.739,0,0,0-.266.6.827.827,0,0,0,.252.672,1.311,1.311,0,0,0,.882.224,4.111,4.111,0,0,0,.91-.1,1.315,1.315,0,0,0,.644-.294A3.175,3.175,0,0,1,473.831,240.99Zm1.82-1.3h2.7c0-.056.014-.14.014-.252a1.529,1.529,0,0,0-.266-.966,1.28,1.28,0,0,0-.994-.322,1.472,1.472,0,0,0-1.12.364A1.735,1.735,0,0,0,475.651,239.688Zm7.827,3.934c0,.266-.126.392-.364.392h-1.162c-.238,0-.35-.126-.35-.392v-6.216c0-.294.14-.448.42-.448h1.036a.482.482,0,0,1,.28.07.306.306,0,0,1,.1.224l.028.21a1.689,1.689,0,0,1,.658-.462,2.712,2.712,0,0,1,1.022-.2,2.548,2.548,0,0,1,.588.056.357.357,0,0,1,.252.378,4.317,4.317,0,0,1-.1,1.008c-.028.154-.154.224-.35.224-.084,0-.21,0-.378-.014s-.308-.028-.364-.028a2.747,2.747,0,0,0-1.036.182.6.6,0,0,0-.238.2.658.658,0,0,0-.042.266Zm9.451-.07a.539.539,0,0,1-.1.364.476.476,0,0,1-.35.1h-.854a.686.686,0,0,1-.35-.056c-.07-.028-.112-.112-.112-.238l-.028-.21a2.808,2.808,0,0,1-2.128.658,2.379,2.379,0,0,1-1.988-.826,4.317,4.317,0,0,1-.672-2.716,4.187,4.187,0,0,1,.826-3.01,3.7,3.7,0,0,1,2.688-.826,3.59,3.59,0,0,1,1.19.154v-3c0-.28.14-.42.434-.42h1.078a.379.379,0,0,1,.266.084.478.478,0,0,1,.1.336Zm-1.876-1.722v-3.276A2.76,2.76,0,0,0,490,238.4a1.727,1.727,0,0,0-1.414.462,3,3,0,0,0-.35,1.736,2.733,2.733,0,0,0,.308,1.526,1.26,1.26,0,0,0,1.106.434,2.226,2.226,0,0,0,1.2-.266.446.446,0,0,0,.154-.182A.644.644,0,0,0,491.053,241.83Zm5.8,1.792c0,.266-.126.392-.364.392h-1.162c-.238,0-.35-.126-.35-.392v-6.258c0-.266.112-.406.35-.406h1.19c.224,0,.336.14.336.392Zm.1-8.834a.928.928,0,0,1-1.036,1.064,1.05,1.05,0,0,1,0-2.1,1.151,1.151,0,0,1,.77.238A1.049,1.049,0,0,1,496.947,234.788Zm2.4,9.184a1.391,1.391,0,0,1-1.05-1.512,1.474,1.474,0,0,1,.952-1.47,2.324,2.324,0,0,1-.546-1.736c0-1.652.994-2.478,3.01-2.478a4.8,4.8,0,0,1,1.386.2H504.9c.224,0,.35.126.35.378v.784c0,.252-.112.364-.336.364h-.574a1.738,1.738,0,0,1,.126.7,2.524,2.524,0,0,1-.658,1.918,3,3,0,0,1-2.128.616,3.921,3.921,0,0,1-.84-.07c-.252-.028-.378-.056-.406-.056a.379.379,0,0,0-.266.084.506.506,0,0,0-.182.434.422.422,0,0,0,.336.462,13.638,13.638,0,0,0,1.792.056,4.9,4.9,0,0,1,2.59.476,2.247,2.247,0,0,1,.644,1.89,2.2,2.2,0,0,1-.812,1.862,4.869,4.869,0,0,1-2.828.6,9.247,9.247,0,0,1-1.5-.1,3.856,3.856,0,0,1-.98-.266,1.331,1.331,0,0,1-.574-.448,1.407,1.407,0,0,1-.28-.56,3.145,3.145,0,0,1-.056-.686A1.425,1.425,0,0,1,499.345,243.972Zm4.2,1.064a.611.611,0,0,0-.238-.56,2.768,2.768,0,0,0-1.092-.182c-.336,0-.728-.014-1.176-.014a1.489,1.489,0,0,0-.5.07.712.712,0,0,0-.462.728.7.7,0,0,0,.322.672,2.935,2.935,0,0,0,1.358.2,3.193,3.193,0,0,0,1.442-.21A.76.76,0,0,0,503.545,245.036Zm-.728-5.782a.994.994,0,0,0-.28-.812,1.877,1.877,0,0,0-1.778.028.923.923,0,0,0-.308.8.979.979,0,0,0,.294.84,1.588,1.588,0,0,0,.91.21,1.369,1.369,0,0,0,.868-.224A1.016,1.016,0,0,0,502.817,239.254Z" fill="rgba(0,0,0,0.28)"/>
    <path id="Path_1527" data-name="Path 1527" d="M94.678,187a7.665,7.665,0,0,1,1.982-3.931Z" fill="#008559"/>
    <path id="Path_1528" data-name="Path 1528" d="M100.689,179.251l.295,2.855a3.368,3.368,0,0,1-3.185,3.57,3.412,3.412,0,0,1-3.783-2.882,3.276,3.276,0,0,1,3.092-3.5l3.257-.293A.292.292,0,0,1,100.689,179.251Z" fill="#008559"/>
  </g>
</svg>
