<svg xmlns="http://www.w3.org/2000/svg" width="24.47" height="23.47" viewBox="0 0 24.47 23.47">
  <g id="indstillingerikon" transform="translate(-31.265 -886.265)">
    <path id="Path_426" data-name="Path 426" d="M52.266,896.235,51,893.319l1.7-1.919-2.3-2.2-2,1.631-3.113-1.224L44.576,887H42.328l-.727,2.641-3.041,1.227L36.6,889.2l-2.3,2.2,1.671,1.968-1.243,2.923L32,896.9v2.2l2.761.721,1.282,2.909L34.3,904.6l2.3,2.2,2.06-1.606,3,1.18L42.35,909h2.3l.7-2.625,3.048-1.208c.508.347,2.007,1.633,2.007,1.633l2.3-2.2-1.707-1.926,1.263-2.916L55,899.075V896.9Z" fill="none" stroke="#fff" stroke-linecap="round" stroke-linejoin="round" stroke-width="1.47"/>
  </g>
</svg>
