<?xml version="1.0" encoding="UTF-8"?>
<svg xmlns="http://www.w3.org/2000/svg" viewBox="0 0 500 285.52">
  <defs>
    <style>
      .cls-1 {
        letter-spacing: 1.19em;
      }

      .cls-2 {
        letter-spacing: 1.19em;
      }

      .cls-3 {
        fill: #3d9776;
      }

      .cls-3, .cls-4, .cls-5 {
        stroke-width: 0px;
      }

      .cls-4 {
        fill: #d6e9d8;
      }

      .cls-6 {
        letter-spacing: 1.19em;
      }

      .cls-5 {
        fill: #fff;
      }

      .cls-7 {
        letter-spacing: 1.19em;
      }

      .cls-8 {
        font-family: Orgon-Black, Orgon-Black;
        font-size: 14.17px;
        font-weight: 800;
      }
    </style>
  </defs>
  <g id="Layer_1" data-name="Layer 1">
    <g>
      <path class="cls-3" d="m44.08,258.15C20.41,253.15,1.42,196.56,1.42,129.97c0-34.4,4.92-66.83,13.86-91.3C23.18,17.05,33.36,4.05,44.08,1.8v256.35Z"/>
      <path class="cls-5" d="m42.67,3.66v252.63c-9.83-3.28-19.41-16.58-26.69-37.28-8.47-24.1-13.14-55.72-13.14-89.04S7.73,63.48,16.61,39.16C23.8,19.5,33.15,6.84,42.67,3.66m2.83-3.52c-12.28,1.37-23.38,15.69-31.55,38.05C5.34,61.76,0,94.22,0,129.97c0,69.67,20.3,126.99,45.5,129.84V.14h0Z"/>
    </g>
    <g>
      <path class="cls-3" d="m47.48,258.53c-.2,0-.39,0-.56,0V1.43c.17,0,.36,0,.56,0h42.1v257.11h-42.1Z"/>
      <path class="cls-5" d="m88.17,2.83v254.28h-39.83V2.83h39.83m2.83-2.83h-43.52c-.66,0-1.33.03-1.98.14v259.68c.65.11,1.32.14,1.98.14h43.52V0h0Z"/>
    </g>
    <g>
      <rect class="cls-3" x="92.42" y="1.42" width="42.17" height="257.11"/>
      <path class="cls-5" d="m133.17,2.83v254.28h-39.33V2.83h39.33m2.83-2.83h-45v259.95h45V0h0Z"/>
    </g>
    <g>
      <rect class="cls-3" x="137.42" y="1.42" width="43.17" height="257.11"/>
      <path class="cls-5" d="m179.17,2.83v254.28h-40.33V2.83h40.33m2.83-2.83h-46v259.95h46V0h0Z"/>
    </g>
    <g>
      <rect class="cls-3" x="183.42" y="1.42" width="42.17" height="257.11"/>
      <path class="cls-5" d="m224.17,2.83v254.28h-39.33V2.83h39.33m2.83-2.83h-45v259.95h45V0h0Z"/>
    </g>
    <g>
      <rect class="cls-3" x="228.42" y="1.42" width="43.17" height="257.11"/>
      <path class="cls-5" d="m270.17,2.83v254.28h-40.33V2.83h40.33m2.83-2.83h-46v259.95h46V0h0Z"/>
    </g>
    <g>
      <rect class="cls-3" x="274.42" y="1.42" width="42.17" height="257.11"/>
      <path class="cls-5" d="m315.17,2.83v254.28h-39.33V2.83h39.33m2.83-2.83h-45v259.95h45V0h0Z"/>
    </g>
    <g>
      <rect class="cls-4" x="319.42" y="1.42" width="43.17" height="257.11"/>
      <path class="cls-5" d="m361.17,2.83v254.28h-40.33V2.83h40.33m2.83-2.83h-46v259.95h46V0h0Z"/>
    </g>
    <g>
      <rect class="cls-4" x="365.42" y="1.42" width="42.17" height="257.11"/>
      <path class="cls-5" d="m406.17,2.83v254.28h-39.33V2.83h39.33m2.83-2.83h-45v259.95h45V0h0Z"/>
    </g>
    <g>
      <rect class="cls-4" x="410.42" y="1.42" width="38.17" height="257.11"/>
      <path class="cls-5" d="m447.17,2.83v254.28h-35.33V2.83h35.33m2.83-2.83h-41v259.95h41V0h0Z"/>
    </g>
    <g>
      <path class="cls-4" d="m451.42,258.53V1.42h1.1c11.82,0,23.55,13.58,32.2,37.25,8.94,24.47,13.86,56.9,13.86,91.3s-4.92,66.83-13.86,91.3c-8.65,23.68-20.38,37.26-32.2,37.26h-1.1Z"/>
      <path class="cls-5" d="m452.83,2.84c11.08.25,22.2,13.45,30.55,36.32,8.88,24.32,13.78,56.57,13.78,90.82s-4.89,66.49-13.78,90.81c-8.35,22.87-19.47,36.08-30.55,36.32V2.84m-.31-2.84h-2.52v259.95h2.52c13.06,0,24.92-14.62,33.53-38.19,8.61-23.57,13.95-56.04,13.95-91.79C500,58.5,478.63,0,452.52,0h0Z"/>
    </g>
    <path class="cls-3" d="m452.52,5.67c19.78,0,41.81,51.05,41.81,124.31,0,1.84-.01,3.44-.04,4.88v.05s0,.05,0,.05v.02c-.02,1.79-.05,3.36-.1,4.81-.04,1.62-.1,3.29-.2,5.42-.06,1.4-.13,2.79-.21,4.19-.12,2.12-.26,4.23-.41,6.27-.12,1.56-.25,3.1-.38,4.63-.14,1.59-.29,3.13-.44,4.58-.21,2.02-.43,3.96-.68,5.93l-.05.39v.02c-.22,1.8-.47,3.62-.73,5.42l-1.38,8.61c-.33,1.9-.7,3.81-1.01,5.42-.44,2.17-.78,3.8-1.11,5.28l-1.87,7.76c-.4,1.55-.84,3.16-1.31,4.78-.24.8-.47,1.61-.71,2.41-.46,1.54-.94,3.08-1.42,4.53-.41,1.22-.96,2.82-1.54,4.39-.57,1.57-1.16,3.07-1.59,4.16-.54,1.33-1.09,2.64-1.65,3.9-.28.63-.57,1.27-.86,1.9-.58,1.27-1.15,2.44-1.7,3.49v.03s-.03.03-.03.03c-.82,1.61-1.72,3.24-2.66,4.82-.59.98-1.2,1.94-1.85,2.92-.55.81-1.17,1.68-1.88,2.64-.39.53-.84,1.09-1.36,1.71l-.05.07-.05.07c-.35.45-.75.9-1.31,1.5-.47.51-.94.99-1.4,1.44l-.5.47c-.55.52-1.16,1.04-1.86,1.61-.42.33-.87.66-1.34.97-.47.32-.91.59-1.36.84-.56.32-1.14.61-1.73.85-.36.15-.72.28-1.07.39h-.03s-.03.02-.03.02c-.57.19-.99.3-1.37.38h-.07s-.07.03-.07.03c-.23.05-.5.1-.82.13h-.13l-.38.05c-.28.04-.62.06-1.05.06H47.48c-.23,0-.55-.02-.83-.04h-.14s0-.01,0-.01l-.22-.03-.55-.08-.56-.08c-.73-.12-1.47-.34-2.21-.64h-.03s-.03-.02-.03-.02c-.52-.2-1.09-.46-1.8-.82h-.03s-.03-.03-.03-.03c-.21-.1-.41-.21-.59-.32-.36-.25-.72-.47-1.07-.69-.57-.38-1.14-.81-1.68-1.25l-.09-.07-.09-.07c-.22-.17-.46-.36-.69-.58l-.08-.08-.09-.07c-.26-.22-.6-.54-.86-.8l-.04-.04-.04-.04c-.26-.25-.52-.52-.8-.8-.71-.72-1.35-1.44-1.96-2.19l-.08-.1-.09-.1c-.17-.18-.34-.4-.51-.63l-.05-.06-.05-.06c-.41-.51-.75-.94-1.06-1.39l-.04-.05-.04-.05-.2-.27c-.14-.18-.28-.37-.41-.57l-.04-.06-.04-.05c-.52-.74-1.09-1.59-1.8-2.68-.63-1.01-1.26-2.09-1.78-2.99-.61-1.09-1.22-2.24-1.72-3.2-.6-1.17-1.21-2.44-1.7-3.49-.29-.63-.58-1.27-.86-1.9v-.03s-.03-.03-.03-.03c-.23-.51-.49-1.11-.79-1.84l-.25-.61c-.24-.58-.49-1.17-.72-1.77l-.02-.05-.02-.05c-.25-.61-.5-1.25-.74-1.86-.76-2.02-1.43-3.89-2.03-5.68-.19-.58-.38-1.16-.58-1.76v-.04s-.03-.04-.03-.04c-.08-.24-.16-.48-.24-.75l-.03-.11-.04-.11c-.27-.82-.49-1.54-.69-2.21v-.04s-.03-.04-.03-.04c-.24-.78-.5-1.66-.78-2.63-.02-.07-.04-.13-.06-.2v-.03s-.05-.14-.05-.14c-.14-.48-.27-.97-.41-1.47l-.07-.24c-.55-1.99-1.02-3.82-1.44-5.59v-.05s-.03-.05-.03-.05c-.16-.6-.29-1.18-.43-1.79v-.03s-.01-.03-.01-.03c-.32-1.35-.64-2.77-.95-4.23v-.05s-.02-.05-.02-.05c-.15-.68-.31-1.44-.47-2.27v-.04s-.02-.04-.02-.04c-.18-.86-.35-1.7-.52-2.56v-.03s-.01-.03-.01-.03c-.17-.86-.33-1.75-.49-2.65-.17-.91-.32-1.8-.48-2.73-.15-.88-.3-1.78-.45-2.71-.27-1.63-.54-3.4-.87-5.73l-.33-2.35c-.14-1.07-.27-2.17-.4-3.25-.12-.97-.24-1.93-.34-2.9-.07-.6-.13-1.23-.19-1.83v-.04s0-.04,0-.04c-.06-.51-.11-1.05-.16-1.57v-.06s-.01-.06-.01-.06c-.08-.71-.16-1.48-.23-2.31-.23-2.54-.4-4.62-.54-6.54-.06-.83-.12-1.68-.17-2.51-.09-1.49-.18-2.98-.26-4.5-.09-1.63-.15-3.09-.2-4.48-.04-1.08-.08-2.16-.11-3.25-.04-1.31-.07-2.63-.09-3.97-.03-2.15-.05-4.06-.05-5.83s.01-3.44.04-4.88v-.05s0-.05,0-.05v-.02c.02-1.79.05-3.36.1-4.79.04-1.3.08-2.6.13-3.87.02-.49.04-.98.07-1.5v-.04s0-.04,0-.04c.06-1.4.13-2.79.21-4.19.12-2.12.26-4.23.41-6.27.12-1.56.25-3.1.38-4.63.14-1.59.29-3.13.44-4.56.24-2.23.46-4.18.69-5.98l.04-.36c.23-1.8.48-3.64.74-5.46l1.37-8.58c.37-2.08.71-3.87,1.02-5.44.38-1.86.74-3.59,1.12-5.29l1.87-7.74c.4-1.55.84-3.16,1.31-4.78.24-.8.47-1.61.71-2.41.46-1.54.94-3.08,1.42-4.53.41-1.22.96-2.82,1.54-4.39.43-1.17.89-2.39,1.52-3.97.24-.61.49-1.22.75-1.83v-.03s.03-.03.03-.03c.25-.61.49-1.19.72-1.68l.04-.1.04-.1c.2-.49.41-.95.64-1.45.95-2.11,1.98-4.17,3.07-6.16.26-.48.53-.96.8-1.45.36-.64.74-1.3,1.17-2l.06-.09.12-.2c.41-.67.84-1.34,1.35-2.1l.02-.03.02-.03c.85-1.3,1.76-2.55,2.78-3.82.58-.72,1.17-1.41,1.76-2.04.14-.14.27-.28.39-.43.29-.31.6-.62.92-.93l.08-.08.07-.08c.06-.06.13-.13.19-.19.37-.36.78-.72,1.21-1.1.29-.25.56-.48.82-.68.4-.31.87-.67,1.26-.93l.08-.05.08-.06c.38-.27.81-.53,1.26-.8.5-.3,1.02-.57,1.54-.81.61-.26,1.12-.46,1.55-.59l.59-.17h0c.08-.02.16-.04.23-.06l.07-.02.1-.02.12-.03c.09-.02.19-.04.28-.06.1-.02.19-.04.29-.06l.4-.06.59-.08.19-.03h.15c.3-.03.61-.05.83-.05h405.04m0-5.67H47.48c-.41,0-.82.03-1.22.05-.26,0-.51.03-.76.08-.38.05-.77.11-1.15.16-.38.08-.76.14-1.14.25-.34.08-.69.16-1.03.27-.05,0-.1.03-.15.05-.74.22-1.47.52-2.19.82-.74.33-1.48.71-2.21,1.15-.55.33-1.09.66-1.63,1.04-.54.36-1.08.77-1.61,1.18-.36.27-.71.57-1.06.88-.5.44-1,.88-1.5,1.37-.08.08-.17.16-.25.25-.46.44-.92.9-1.37,1.4-.03.05-.06.08-.09.11-.72.77-1.43,1.59-2.13,2.46-1.05,1.31-2.08,2.71-3.09,4.24-.5.74-1,1.51-1.5,2.33-.02.03-.04.05-.06.08-.47.77-.94,1.56-1.4,2.38-.28.49-.57,1.01-.85,1.53-1.12,2.05-2.2,4.22-3.24,6.52-.24.52-.47,1.04-.7,1.59-.28.6-.55,1.26-.82,1.92-.28.66-.55,1.31-.81,1.97-.53,1.34-1.06,2.71-1.57,4.11-.54,1.48-1.06,2.98-1.58,4.52-.51,1.53-1.01,3.12-1.49,4.74-.24.79-.48,1.62-.72,2.44-.47,1.62-.93,3.29-1.37,5.01l-1.89,7.83c-.4,1.81-.78,3.61-1.15,5.45-.36,1.83-.71,3.72-1.05,5.61l-1.39,8.68c-.28,1.94-.55,3.94-.8,5.94v.03c-.25,2-.48,4.02-.7,6.08-.16,1.53-.31,3.09-.45,4.65-.14,1.56-.27,3.12-.39,4.71-.16,2.11-.3,4.24-.42,6.38-.08,1.42-.15,2.85-.21,4.27-.03.55-.05,1.07-.07,1.59-.05,1.29-.09,2.6-.13,3.91-.05,1.64-.08,3.29-.1,4.93v.05c-.03,1.64-.04,3.31-.04,4.98,0,2,.02,3.97.05,5.91.02,1.37.05,2.71.09,4.05.03,1.09.07,2.19.11,3.29.05,1.53.12,3.07.2,4.57.08,1.53.17,3.04.26,4.54.05.85.11,1.72.17,2.57.16,2.24.35,4.46.55,6.65.07.82.15,1.64.24,2.44.05.55.11,1.12.17,1.67.06.63.13,1.29.2,1.92.11.99.23,1.97.35,2.96.13,1.1.27,2.22.41,3.31.11.79.22,1.59.33,2.38.28,2,.57,3.97.89,5.89.15.93.3,1.86.46,2.76.16.93.32,1.83.49,2.76.16.9.33,1.83.51,2.74.17.9.35,1.78.54,2.68.16.82.33,1.64.51,2.44.31,1.48.64,2.96.98,4.38.15.66.3,1.29.47,1.94.47,1.97.97,3.89,1.49,5.78.17.63.33,1.23.51,1.83.02.08.05.16.07.25.27.96.55,1.92.83,2.82.24.82.49,1.61.74,2.38.1.36.21.68.32,1.01.2.63.4,1.23.6,1.83.68,2.03,1.38,3.97,2.1,5.89.26.68.53,1.37.8,2.03.33.85.68,1.67,1.02,2.49.28.68.57,1.37.87,2.03.29.66.59,1.31.89,1.97.59,1.26,1.19,2.52,1.81,3.72.6,1.15,1.21,2.3,1.83,3.39.63,1.1,1.27,2.19,1.92,3.23.65,1.01,1.3,2,1.96,2.93.24.36.49.68.73,1.01.42.6.85,1.15,1.29,1.7.27.36.54.68.81.99.76.93,1.53,1.78,2.31,2.57.32.33.64.66.96.96.39.38.79.77,1.18,1.1.36.33.72.63,1.08.9.73.6,1.47,1.15,2.21,1.64.35.22.7.44,1.06.68.39.25.79.47,1.18.66.76.38,1.52.74,2.29,1.04,1.15.47,2.31.79,3.48.99.39.05.79.11,1.18.16.25.05.5.08.76.08.4.03.81.05,1.22.05h405.04c.61,0,1.22-.03,1.82-.11h.02c.6-.05,1.2-.14,1.8-.27.68-.14,1.34-.33,2.01-.55.52-.16,1.04-.36,1.56-.57.78-.33,1.56-.71,2.33-1.15.58-.33,1.15-.68,1.72-1.07.57-.38,1.14-.79,1.7-1.23.75-.6,1.49-1.23,2.22-1.92h0c.73-.68,1.46-1.42,2.17-2.19.54-.57,1.08-1.18,1.6-1.83.53-.63,1.06-1.29,1.57-1.97.69-.93,1.38-1.89,2.05-2.87.67-1.01,1.33-2.05,1.99-3.15.98-1.64,1.94-3.37,2.86-5.17.63-1.2,1.24-2.46,1.83-3.75.3-.66.6-1.31.89-1.97.59-1.31,1.17-2.68,1.73-4.08.56-1.42,1.11-2.85,1.65-4.33.54-1.48,1.06-2.98,1.58-4.52.51-1.53,1.01-3.12,1.49-4.74.24-.79.48-1.62.72-2.44.47-1.62.93-3.28,1.37-5.01l1.89-7.83c.4-1.78.78-3.61,1.15-5.45.36-1.83.72-3.7,1.05-5.61l1.39-8.68c.29-1.94.56-3.94.8-5.94v-.03c.26-2.03.49-4.02.7-6.08.16-1.53.31-3.09.45-4.65.14-1.56.27-3.12.39-4.71.16-2.11.3-4.24.42-6.38.08-1.42.15-2.85.21-4.27.08-1.83.15-3.64.2-5.5.05-1.64.08-3.29.1-4.93v-.05c.03-1.64.04-3.31.04-4.98C500,58.5,478.63,0,452.52,0h0Z"/>
    <g>
      <circle class="cls-5" cx="252.19" cy="133.16" r="104.13" transform="translate(-20.29 217.33) rotate(-45)"/>
      <path class="cls-3" d="m252.19,33.28c55.07,0,99.88,44.81,99.88,99.88s-44.81,99.88-99.88,99.88-99.88-44.81-99.88-99.88,44.81-99.88,99.88-99.88m0-8.5c-59.86,0-108.38,48.52-108.38,108.38s48.52,108.38,108.38,108.38,108.38-48.52,108.38-108.38-48.52-108.38-108.38-108.38h0Z"/>
    </g>
  </g>
  <g id="Layer_3" data-name="Layer 3">
    <text class="cls-8" transform="translate(9.91 275.1)"><tspan x="0" y="0">450</tspan><tspan class="cls-7" x="25.51" y="0"> </tspan><tspan x="45.5" y="0">500</tspan><tspan class="cls-2" x="71.02" y="0"> </tspan><tspan x="91.01" y="0">550</tspan><tspan class="cls-2" x="116.52" y="0"> </tspan><tspan x="136.51" y="0">600</tspan><tspan class="cls-7" x="162.02" y="0"> </tspan><tspan x="182.01" y="0">650</tspan><tspan class="cls-7" x="207.53" y="0"> </tspan><tspan x="227.52" y="0">700</tspan><tspan class="cls-2" x="253.03" y="0"> </tspan><tspan x="273.02" y="0">750</tspan><tspan class="cls-2" x="298.53" y="0"> </tspan><tspan x="318.53" y="0">800</tspan><tspan class="cls-2" x="344.04" y="0"> </tspan><tspan x="364.03" y="0">850</tspan><tspan class="cls-6" x="389.54" y="0"> </tspan><tspan x="409.53" y="0">900</tspan><tspan class="cls-1" x="435.04" y="0"> </tspan><tspan x="455.03" y="0">950</tspan></text>
  </g>
</svg>