<?xml version="1.0" encoding="UTF-8"?>
<svg xmlns="http://www.w3.org/2000/svg" viewBox="0 0 500 365.57">
  <defs>
    <style>
      .cls-1 {
        letter-spacing: .05em;
      }

      .cls-1, .cls-2, .cls-3 {
        fill: #fff;
      }

      .cls-1, .cls-3 {
        font-family: Orgon-Black, Orgon-Black;
        font-size: 19.6px;
        font-weight: 800;
      }

      .cls-2 {
        stroke: #3d9776;
        stroke-width: 8.5px;
      }

      .cls-2, .cls-4, .cls-5, .cls-6 {
        stroke-miterlimit: 10;
      }

      .cls-4 {
        fill: none;
      }

      .cls-4, .cls-5, .cls-6 {
        stroke: #fff;
        stroke-width: 2.83px;
      }

      .cls-5 {
        fill: #d6e9d8;
      }

      .cls-3 {
        letter-spacing: .05em;
      }

      .cls-6 {
        fill: #3d9776;
      }
    </style>
  </defs>
  <g id="Layer_2" data-name="Layer 2">
    <path class="cls-6" d="m496.38,248.58c0,1.03-.01,2.04-.02,3.05h-35.53c.06-2.13.09-4.27.09-6.42,0-10.38-.75-20.58-2.2-30.55l34.44-6.08c2.12,13.02,3.23,26.38,3.23,40Z"/>
    <path class="cls-6" d="m493.15,208.58l-34.44,6.08c-2.22-15.47-6.14-30.42-11.54-44.61l31.66-13.07c6.56,16.41,11.41,33.68,14.32,51.59Z"/>
    <path class="cls-6" d="m478.83,156.99l-31.66,13.07c-5.65-14.85-12.9-28.91-21.59-41.94l27.5-19.28c10.27,14.94,18.94,31.07,25.75,48.15Z"/>
    <path class="cls-6" d="m453.08,108.84l-27.5,19.28c-8.7-13.07-18.81-25.11-30.12-35.92l22.31-24.33c13.2,12.32,25.06,26.06,35.31,40.98Z"/>
    <path class="cls-6" d="m417.77,67.86l-22.31,24.33c-11.38-10.85-23.96-20.47-37.55-28.6l16.29-28.2c15.72,9.22,30.31,20.13,43.56,32.47Z"/>
    <path class="cls-6" d="m374.2,35.39l-16.29,28.2c-13.75-8.24-28.5-14.95-44.05-19.92l9.56-30.82c17.89,5.61,34.9,13.22,50.78,22.54Z"/>
    <path class="cls-6" d="m323.43,12.85l-9.56,30.82c-14.36-4.6-29.38-7.7-44.89-9.11l2.89-31.99c17.8,1.61,35.05,5.1,51.56,10.29Z"/>
    <path class="cls-6" d="m271.87,2.56l-2.89,31.99c-6.46-.61-13.02-.91-19.63-.91-9.47,0-18.8.62-27.95,1.83l-4.12-31.87c10.5-1.36,21.21-2.06,32.08-2.06,7.59,0,15.1.35,22.52,1.01Z"/>
    <path class="cls-6" d="m221.4,35.48c-16.18,2.13-31.76,6.09-46.57,11.67l-11.07-30.37c17.03-6.29,34.96-10.76,53.52-13.17l4.12,31.87Z"/>
    <path class="cls-6" d="m174.83,47.15c-14.89,5.6-28.98,12.82-42.04,21.48l-17.54-27.54c15.12-9.79,31.36-17.97,48.51-24.31l11.07,30.37Z"/>
    <path class="cls-6" d="m132.78,68.63c-13.18,8.71-25.32,18.87-36.22,30.23l-23.41-23.41c12.7-12.93,26.81-24.47,42.1-34.36l17.54,27.54Z"/>
    <path class="cls-6" d="m96.56,98.86c-10.39,10.84-19.64,22.79-27.55,35.66l-28.24-18.35c9.34-14.7,20.21-28.35,32.38-40.72l23.41,23.41Z"/>
    <path class="cls-6" d="m69.01,134.52c-7.9,12.85-14.47,26.6-19.51,41.07l-32.1-12.21c6.12-16.66,13.98-32.47,23.37-47.21l28.24,18.35Z"/>
    <path class="cls-6" d="m49.51,175.59c-4.94,14.16-8.41,29-10.23,44.35l-34.66-5.23c2.44-17.78,6.77-34.96,12.79-51.33l32.1,12.21Z"/>
    <path class="cls-6" d="m37.78,245.22c0,2.15.03,4.3.09,6.43H2.34c-.01-1.01-.02-2.04-.02-3.06,0-11.49.78-22.8,2.3-33.87l34.66,5.23c-.99,8.3-1.5,16.73-1.5,25.28Z"/>
    <path class="cls-5" d="m208.8,140.38c-8.08,3.08-15.72,7.07-22.78,11.83l-50.94-79.97c12.77-8.55,26.56-15.72,41.13-21.27l32.58,89.41Z"/>
    <path class="cls-5" d="m234.13,133.92c-8.8,1.18-17.28,3.36-25.32,6.46l-32.58-89.41c14.52-5.52,29.82-9.45,45.68-11.56l12.22,94.5Z"/>
    <path class="cls-5" d="m268.62,38.5l-8.58,94.91c-3.51-.33-7.09-.51-10.69-.51-5.16,0-10.24.35-15.22,1.01l-12.22-94.5c8.98-1.2,18.13-1.82,27.44-1.82,6.5,0,12.93.3,19.28.9Z"/>
    <path class="cls-5" d="m442.32,172.04l-86.33,35.61c-2.93-8.08-6.74-15.73-11.34-22.82l76.96-53.94c8.35,12.8,15.34,26.59,20.7,41.15Z"/>
    <path class="cls-5" d="m453.14,215.64l-91.31,16.13c-1.07-8.35-3.05-16.43-5.84-24.11l86.33-35.61c5.13,13.88,8.79,28.48,10.82,43.6Z"/>
    <path class="cls-5" d="m454.97,243.22c0,2.82-.06,5.62-.17,8.41h-92.17c.08-1.76.13-3.54.13-5.32,0-4.92-.31-9.78-.92-14.54l91.31-16.13c1.21,9.02,1.83,18.23,1.83,27.58Z"/>
    <path class="cls-5" d="m355.79,67.27l-47.45,82.18c-7.44-4.55-15.44-8.25-23.88-10.99l28.2-90.92c15.23,4.92,29.68,11.57,43.12,19.72Z"/>
    <line class="cls-4" x1="357.91" y1="63.59" x2="355.79" y2="67.27"/>
    <line class="cls-4" x1="460.82" y1="251.63" x2="454.8" y2="251.63"/>
    <line class="cls-4" x1="43.9" y1="251.65" x2="37.87" y2="251.65"/>
    <line class="cls-4" x1="458.71" y1="214.66" x2="453.14" y2="215.64"/>
    <line class="cls-4" x1="447.17" y1="170.05" x2="442.32" y2="172.04"/>
    <path class="cls-5" d="m421.61,130.89l-76.96,53.94c-4.62-7.14-10.02-13.75-16.08-19.66l63.84-69.66c10.99,10.65,20.8,22.51,29.21,35.37Z"/>
    <line class="cls-4" x1="425.58" y1="128.11" x2="421.61" y2="130.89"/>
    <path class="cls-5" d="m392.41,95.52l-63.84,69.66c-6.11-5.98-12.89-11.26-20.22-15.73l47.45-82.18c13.26,8.03,25.54,17.52,36.62,28.25Z"/>
    <line class="cls-4" x1="395.46" y1="92.19" x2="392.41" y2="95.52"/>
    <path class="cls-6" d="m312.67,47.54l-28.2,90.92c-7.8-2.55-15.98-4.26-24.43-5.05l8.58-94.91c15.23,1.41,29.97,4.48,44.05,9.04Z"/>
    <line class="cls-4" x1="313.87" y1="43.67" x2="312.67" y2="47.54"/>
    <line class="cls-4" x1="268.98" y1="34.56" x2="268.62" y2="38.5"/>
    <line class="cls-4" x1="221.9" y1="39.42" x2="221.4" y2="35.48"/>
    <line class="cls-4" x1="176.22" y1="50.98" x2="174.83" y2="47.15"/>
    <path class="cls-5" d="m186.02,152.22c-7.12,4.8-13.65,10.38-19.48,16.63l-66.74-66.74c10.59-11.21,22.42-21.25,35.29-29.85l50.94,79.97Z"/>
    <line class="cls-4" x1="135.09" y1="72.25" x2="132.78" y2="68.63"/>
    <path class="cls-5" d="m166.54,168.84c-5.56,5.93-10.5,12.47-14.67,19.49l-78.75-51.14c7.63-12.65,16.58-24.41,26.67-35.09l66.74,66.74Z"/>
    <line class="cls-4" x1="99.8" y1="102.1" x2="96.56" y2="98.86"/>
    <path class="cls-5" d="m151.87,188.34c-4.18,6.99-7.62,14.47-10.21,22.33l-87.21-33.18c4.78-14.18,11.06-27.67,18.66-40.29l78.75,51.14Z"/>
    <line class="cls-4" x1="73.13" y1="137.19" x2="69.01" y2="134.52"/>
    <path class="cls-5" d="m141.67,210.66c-2.55,7.65-4.29,15.67-5.13,23.95l-91.61-13.83c1.62-14.98,4.86-29.47,9.53-43.31l87.21,33.18Z"/>
    <line class="cls-4" x1="54.46" y1="177.48" x2="49.51" y2="175.59"/>
    <path class="cls-5" d="m135.94,246.31c0,1.79.05,3.56.13,5.33H43.9c-.12-2.79-.17-5.6-.17-8.42,0-7.58.41-15.06,1.21-22.43l91.61,13.83c-.39,3.84-.6,7.74-.6,11.69Z"/>
    <line class="cls-4" x1="44.93" y1="220.79" x2="39.28" y2="219.94"/>
  </g>
  <g id="Layer_3" data-name="Layer 3">
    <circle class="cls-2" cx="250" cy="247.3" r="114.01"/>
    <text class="cls-1" transform="translate(238.49 24.46)"><tspan x="0" y="0">7</tspan></text>
    <text class="cls-1" transform="translate(289.23 29.41)"><tspan x="0" y="0">8</tspan></text>
    <text class="cls-1" transform="translate(338.6 44.36)"><tspan x="0" y="0">9</tspan></text>
    <text class="cls-1" transform="translate(373.28 69.72)"><tspan x="0" y="0">10</tspan></text>
    <text class="cls-1" transform="translate(410.98 105.03)"><tspan x="0" y="0">11</tspan></text>
    <text class="cls-1" transform="translate(437.9 147.94)"><tspan x="0" y="0">12</tspan></text>
    <text class="cls-1" transform="translate(458.59 193.52)"><tspan x="0" y="0">13</tspan></text>
    <text class="cls-1" transform="translate(465.44 238.08)"><tspan x="0" y="0">14</tspan></text>
    <text class="cls-3" transform="translate(188.18 31.27)"><tspan x="0" y="0">6</tspan></text>
    <text class="cls-3" transform="translate(139.24 47.47)"><tspan x="0" y="0">5</tspan></text>
    <text class="cls-3" transform="translate(99.05 75.76)"><tspan x="0" y="0">4</tspan></text>
    <text class="cls-3" transform="translate(62.28 111.71)"><tspan x="0" y="0">3</tspan></text>
    <text class="cls-3" transform="translate(38.86 152.91)"><tspan x="0" y="0">2</tspan></text>
    <text class="cls-3" transform="translate(20.65 199.5)"><tspan x="0" y="0">1</tspan></text>
    <text class="cls-3" transform="translate(12.5 241.42)"><tspan x="0" y="0">0</tspan></text>
  </g>
</svg>