<svg xmlns="http://www.w3.org/2000/svg" width="21.357" height="36.165" viewBox="0 0 21.357 36.165">
  <path id="Path_410" data-name="Path 410" d="M1285.37,158.541c-.12,0-.12,0-.24-.012a2.47,2.47,0,0,1-2.12-2.738l1.26-14.539a2.421,2.421,0,0,1,2.36-2.252h9.17a2.229,2.229,0,0,1,.77.136,2.53,2.53,0,0,1,1.47,3.178l-3.06,8.017h5.65a2.27,2.27,0,0,1,1.19.338,2.578,2.578,0,0,1,.86,3.419c-.85,1.591-9.42,15.262-12.19,19.674a.413.413,0,0,1-.76-.229l.93-15Z" transform="translate(-1282.386 -138.4)" fill="none" stroke="#008559" stroke-linecap="round" stroke-linejoin="round" stroke-width="1.2"/>
</svg>
