<?xml version="1.0" encoding="UTF-8"?>
<svg id="Layer_1" data-name="Layer 1" xmlns="http://www.w3.org/2000/svg" viewBox="0 0 1002.04 396.5">
  <defs>
    <style>
      .cls-1 {
        letter-spacing: 1.67em;
      }

      .cls-2 {
        fill: none;
      }

      .cls-2, .cls-3 {
        stroke: #00865a;
        stroke-miterlimit: 10;
      }

      .cls-4 {
        opacity: .2;
      }

      .cls-5, .cls-6 {
        fill: #231f20;
        font-family: Orgon-Regular, Orgon-Regular;
        font-size: 8.5px;
      }

      .cls-7 {
        letter-spacing: 1.67em;
      }

      .cls-8 {
        letter-spacing: 1.67em;
      }

      .cls-6 {
        opacity: .97;
      }

      .cls-9 {
        letter-spacing: 1.67em;
      }

      .cls-3 {
        fill: #d6ead9;
        opacity: .75;
      }
    </style>
  </defs>
  <g class="cls-4">
    <rect class="cls-2" x="23" y=".5" width="957.06" height="337.21"/>
    <line class="cls-2" x1="23" y1="319.96" x2="980.06" y2="319.96"/>
    <line class="cls-2" x1="23" y1="302.22" x2="980.06" y2="302.22"/>
    <line class="cls-2" x1="23" y1="284.47" x2="980.06" y2="284.47"/>
    <line class="cls-2" x1="23" y1="266.72" x2="980.06" y2="266.72"/>
    <line class="cls-2" x1="23" y1="248.97" x2="980.06" y2="248.97"/>
    <line class="cls-2" x1="23" y1="231.22" x2="980.06" y2="231.22"/>
    <line class="cls-2" x1="23" y1="213.48" x2="980.06" y2="213.48"/>
    <line class="cls-2" x1="23" y1="195.73" x2="980.06" y2="195.73"/>
    <line class="cls-2" x1="23" y1="177.98" x2="980.06" y2="177.98"/>
    <line class="cls-2" x1="23" y1="160.23" x2="980.06" y2="160.23"/>
    <line class="cls-2" x1="23" y1="142.48" x2="980.06" y2="142.48"/>
    <line class="cls-2" x1="23" y1="124.74" x2="980.06" y2="124.74"/>
    <line class="cls-2" x1="23" y1="106.99" x2="980.06" y2="106.99"/>
    <line class="cls-2" x1="23" y1="89.24" x2="980.06" y2="89.24"/>
    <line class="cls-2" x1="23" y1="71.49" x2="980.06" y2="71.49"/>
    <line class="cls-2" x1="23" y1="53.74" x2="980.06" y2="53.74"/>
    <line class="cls-2" x1="23" y1="36" x2="980.06" y2="36"/>
    <line class="cls-2" x1="23" y1="18.25" x2="980.06" y2="18.25"/>
    <line class="cls-2" x1="926.89" y1=".5" x2="926.89" y2="337.71"/>
    <line class="cls-2" x1="873.72" y1=".5" x2="873.72" y2="337.71"/>
    <line class="cls-2" x1="820.55" y1=".5" x2="820.55" y2="337.71"/>
    <line class="cls-2" x1="767.38" y1=".5" x2="767.38" y2="337.71"/>
    <line class="cls-2" x1="714.21" y1=".5" x2="714.21" y2="337.71"/>
    <line class="cls-2" x1="661.04" y1=".5" x2="661.04" y2="337.71"/>
    <line class="cls-2" x1="607.87" y1=".5" x2="607.87" y2="337.71"/>
    <line class="cls-2" x1="554.7" y1=".5" x2="554.7" y2="337.71"/>
    <line class="cls-2" x1="501.53" y1=".5" x2="501.53" y2="337.71"/>
    <line class="cls-2" x1="448.36" y1=".5" x2="448.36" y2="337.71"/>
    <line class="cls-2" x1="395.19" y1=".5" x2="395.19" y2="337.71"/>
    <line class="cls-2" x1="342.02" y1=".5" x2="342.02" y2="337.71"/>
    <line class="cls-2" x1="288.85" y1=".5" x2="288.85" y2="337.71"/>
    <line class="cls-2" x1="235.68" y1=".5" x2="235.68" y2="337.71"/>
    <line class="cls-2" x1="182.51" y1=".5" x2="182.51" y2="337.71"/>
    <line class="cls-2" x1="129.34" y1=".5" x2="129.34" y2="337.71"/>
    <line class="cls-2" x1="76.17" y1=".5" x2="76.17" y2="337.71"/>
  </g>
  <text class="cls-5" transform="translate(0 13.75)"><tspan x="0" y="0">23,8-</tspan><tspan x="0" y="17.57">23,6-</tspan><tspan x="0" y="35.15">23,4-</tspan><tspan x="0" y="52.72">23,2-</tspan><tspan x="0" y="70.3">23,0-</tspan><tspan x="0" y="87.87">22,8-</tspan><tspan x="0" y="105.45">22,6-</tspan><tspan x="0" y="123.02">22,4-</tspan><tspan x="0" y="140.6">22,2-</tspan><tspan x="0" y="158.17">22,0-</tspan><tspan x="0" y="175.75">21,8-</tspan><tspan x="0" y="193.32">21,6-</tspan><tspan x="0" y="210.9">21,4-</tspan><tspan x="0" y="228.47">21,2-</tspan><tspan x="0" y="246.05">20,8-</tspan><tspan x="0" y="263.62">20,6-</tspan><tspan x="0" y="281.2">20,4-</tspan><tspan x="0" y="298.77">20,2-</tspan><tspan x="0" y="316.35">20,0-</tspan></text>
  <text class="cls-6" transform="translate(63.36 352.16)"><tspan x="0" y="0">12:40</tspan><tspan class="cls-1" x="21.28" y="0" xml:space="preserve">  </tspan><tspan x="53.52" y="0">15:26</tspan><tspan class="cls-1" x="74.79" y="0" xml:space="preserve">  </tspan><tspan x="107.03" y="0">18:13</tspan><tspan class="cls-1" x="128.31" y="0" xml:space="preserve">  </tspan><tspan x="160.55" y="0">21:00</tspan><tspan class="cls-1" x="181.83" y="0" xml:space="preserve">  </tspan><tspan x="214.07" y="0">23:46</tspan><tspan class="cls-1" x="235.34" y="0" xml:space="preserve">  </tspan><tspan x="267.58" y="0">02:33</tspan><tspan class="cls-1" x="288.86" y="0" xml:space="preserve">  </tspan><tspan x="321.1" y="0">05:20</tspan><tspan class="cls-1" x="342.38" y="0" xml:space="preserve">  </tspan><tspan x="374.62" y="0">08:06</tspan><tspan class="cls-1" x="395.89" y="0" xml:space="preserve">  </tspan><tspan x="428.13" y="0">10:53</tspan><tspan class="cls-7" x="449.41" y="0" xml:space="preserve">  </tspan><tspan x="481.65" y="0">13:40</tspan><tspan class="cls-9" x="502.93" y="0" xml:space="preserve">  </tspan><tspan x="535.17" y="0">16:26</tspan><tspan class="cls-8" x="556.44" y="0" xml:space="preserve">  </tspan><tspan x="588.68" y="0">19:13</tspan><tspan class="cls-9" x="609.96" y="0" xml:space="preserve">  </tspan><tspan x="642.2" y="0">22:00</tspan><tspan class="cls-8" x="663.48" y="0" xml:space="preserve">  </tspan><tspan x="695.72" y="0">00:46</tspan><tspan class="cls-9" x="716.99" y="0" xml:space="preserve">  </tspan><tspan x="749.23" y="0">03:33</tspan><tspan class="cls-8" x="770.51" y="0" xml:space="preserve">  </tspan><tspan x="802.75" y="0">05:20</tspan><tspan class="cls-9" x="824.03" y="0" xml:space="preserve">  </tspan><tspan x="856.27" y="0">08:06</tspan></text>
  <path class="cls-3" d="m23,177.29l8.57,23.97,6.89,4.79,9.19-48.83,6.89-8.04,2.87,4.02,7.02-4.02,11.72,10.37,3.66-26.22,3.45,3.21,5.74-39.64,6.89,40.21,21.83-18.38,33.32,32.74,4.02-5.74,33.32,13.82,25.85-23.01,31.6-.57,14.36-2.64,17.81,8.47,28.15-31.11,62.04,38.49,49.4,52.09,2.87-6.22,17.81,11.01,35.04,113.23,9.19-9.83,8.62-50.55,4.26-1.72v22.4l14.7-22.4,4.6-35.62,3.45-4.6,3.45-8.87v16.34l5.17-8.62,5.93,7.47v-10.49l4.98,4.17v-4.17l3.45,2.45,1.61-3.34,1.84-3.82,4.6-3.19v7.89l5.53-4.7,10.55,27.83h4.02l3.45-23.13h4.02v-4.7l8.62,24.96,10.91-28.15,8.04,17.81,3.55,22.98,3.91,2.6,5.74,12.34,2.87-4.02,4.6,4.6h3.45l4.6-12.91h4.02v-6.62l4.6,6.62,2.87-3.75,2.87,21.5,4.02-3.11,6.89,3.11h5.74l5.17-5.99,4.6,5.99s6.32,7.56,5.17,3.78,8.62-29.87,8.62-29.87v-9.4l3.45-6.11,8.62,18.96,4.6,17.81,6.32,11.49,9.19.57s59.74-122.57,114.32-144.77l8.62,4.83,18.96-9.27,4.02-9.34,90.77-29.87,23.6-60.89v313.09H23v-159.73Z"/>
</svg>