<?xml version="1.0" encoding="UTF-8"?>
<svg id="Layer_1" data-name="Layer 1" xmlns="http://www.w3.org/2000/svg" viewBox="0 0 994.58 396.5">
  <defs>
    <style>
      .cls-1 {
        letter-spacing: 1.67em;
      }

      .cls-2 {
        fill: none;
      }

      .cls-2, .cls-3 {
        stroke: #00865a;
        stroke-miterlimit: 10;
      }

      .cls-4 {
        opacity: .2;
      }

      .cls-5, .cls-6 {
        fill: #231f20;
        font-family: Orgon-Regular, Orgon-Regular;
        font-size: 8.5px;
      }

      .cls-7 {
        letter-spacing: 1.67em;
      }

      .cls-8 {
        letter-spacing: 1.67em;
      }

      .cls-6 {
        opacity: .97;
      }

      .cls-9 {
        letter-spacing: 1.67em;
      }

      .cls-3 {
        fill: #d6ead9;
        opacity: .75;
      }
    </style>
  </defs>
  <g class="cls-4">
    <rect class="cls-2" x="15.55" y=".5" width="957.06" height="337.21"/>
    <line class="cls-2" x1="15.55" y1="319.96" x2="972.61" y2="319.96"/>
    <line class="cls-2" x1="15.55" y1="302.22" x2="972.61" y2="302.22"/>
    <line class="cls-2" x1="15.55" y1="284.47" x2="972.61" y2="284.47"/>
    <line class="cls-2" x1="15.55" y1="266.72" x2="972.61" y2="266.72"/>
    <line class="cls-2" x1="15.55" y1="248.97" x2="972.61" y2="248.97"/>
    <line class="cls-2" x1="15.55" y1="231.22" x2="972.61" y2="231.22"/>
    <line class="cls-2" x1="15.55" y1="213.48" x2="972.61" y2="213.48"/>
    <line class="cls-2" x1="15.55" y1="195.73" x2="972.61" y2="195.73"/>
    <line class="cls-2" x1="15.55" y1="177.98" x2="972.61" y2="177.98"/>
    <line class="cls-2" x1="15.55" y1="160.23" x2="972.61" y2="160.23"/>
    <line class="cls-2" x1="15.55" y1="142.48" x2="972.61" y2="142.48"/>
    <line class="cls-2" x1="15.55" y1="124.74" x2="972.61" y2="124.74"/>
    <line class="cls-2" x1="15.55" y1="106.99" x2="972.61" y2="106.99"/>
    <line class="cls-2" x1="15.55" y1="89.24" x2="972.61" y2="89.24"/>
    <line class="cls-2" x1="15.55" y1="71.49" x2="972.61" y2="71.49"/>
    <line class="cls-2" x1="15.55" y1="53.74" x2="972.61" y2="53.74"/>
    <line class="cls-2" x1="15.55" y1="36" x2="972.61" y2="36"/>
    <line class="cls-2" x1="15.55" y1="18.25" x2="972.61" y2="18.25"/>
    <line class="cls-2" x1="919.44" y1=".5" x2="919.44" y2="337.71"/>
    <line class="cls-2" x1="866.27" y1=".5" x2="866.27" y2="337.71"/>
    <line class="cls-2" x1="813.1" y1=".5" x2="813.1" y2="337.71"/>
    <line class="cls-2" x1="759.93" y1=".5" x2="759.93" y2="337.71"/>
    <line class="cls-2" x1="706.76" y1=".5" x2="706.76" y2="337.71"/>
    <line class="cls-2" x1="653.59" y1=".5" x2="653.59" y2="337.71"/>
    <line class="cls-2" x1="600.42" y1=".5" x2="600.42" y2="337.71"/>
    <line class="cls-2" x1="547.25" y1=".5" x2="547.25" y2="337.71"/>
    <line class="cls-2" x1="494.08" y1=".5" x2="494.08" y2="337.71"/>
    <line class="cls-2" x1="440.91" y1=".5" x2="440.91" y2="337.71"/>
    <line class="cls-2" x1="387.74" y1=".5" x2="387.74" y2="337.71"/>
    <line class="cls-2" x1="334.57" y1=".5" x2="334.57" y2="337.71"/>
    <line class="cls-2" x1="281.4" y1=".5" x2="281.4" y2="337.71"/>
    <line class="cls-2" x1="228.23" y1=".5" x2="228.23" y2="337.71"/>
    <line class="cls-2" x1="175.06" y1=".5" x2="175.06" y2="337.71"/>
    <line class="cls-2" x1="121.89" y1=".5" x2="121.89" y2="337.71"/>
    <line class="cls-2" x1="68.72" y1=".5" x2="68.72" y2="337.71"/>
  </g>
  <text class="cls-5" transform="translate(0 13.75)"><tspan x="0" y="0">9,0-</tspan><tspan x="0" y="17.57">8,9-</tspan><tspan x="0" y="35.15">8,8-</tspan><tspan x="0" y="52.72">8,7-</tspan><tspan x="0" y="70.3">8,6-</tspan><tspan x="0" y="87.87">8,5-</tspan><tspan x="0" y="105.45">8,4-</tspan><tspan x="0" y="123.02">8,3-</tspan><tspan x="0" y="140.6">8,2-</tspan><tspan x="0" y="158.17">8,1-</tspan><tspan x="0" y="175.75">8,0-</tspan><tspan x="0" y="193.32">7,9-</tspan><tspan x="0" y="210.9">7,8-</tspan><tspan x="0" y="228.47">7,7-</tspan><tspan x="0" y="246.05">7,6-</tspan><tspan x="0" y="263.62">7,5-</tspan><tspan x="0" y="281.2">7,4-</tspan><tspan x="0" y="298.77">7,3-</tspan><tspan x="0" y="316.35">7,2-</tspan></text>
  <text class="cls-6" transform="translate(55.9 352.16)"><tspan x="0" y="0">12:40</tspan><tspan class="cls-1" x="21.28" y="0" xml:space="preserve">  </tspan><tspan x="53.52" y="0">15:26</tspan><tspan class="cls-1" x="74.79" y="0" xml:space="preserve">  </tspan><tspan x="107.03" y="0">18:13</tspan><tspan class="cls-1" x="128.31" y="0" xml:space="preserve">  </tspan><tspan x="160.55" y="0">21:00</tspan><tspan class="cls-1" x="181.83" y="0" xml:space="preserve">  </tspan><tspan x="214.07" y="0">23:46</tspan><tspan class="cls-1" x="235.34" y="0" xml:space="preserve">  </tspan><tspan x="267.58" y="0">02:33</tspan><tspan class="cls-1" x="288.86" y="0" xml:space="preserve">  </tspan><tspan x="321.1" y="0">05:20</tspan><tspan class="cls-1" x="342.38" y="0" xml:space="preserve">  </tspan><tspan x="374.62" y="0">08:06</tspan><tspan class="cls-1" x="395.89" y="0" xml:space="preserve">  </tspan><tspan x="428.13" y="0">10:53</tspan><tspan class="cls-7" x="449.41" y="0" xml:space="preserve">  </tspan><tspan x="481.65" y="0">13:40</tspan><tspan class="cls-9" x="502.93" y="0" xml:space="preserve">  </tspan><tspan x="535.17" y="0">16:26</tspan><tspan class="cls-8" x="556.44" y="0" xml:space="preserve">  </tspan><tspan x="588.68" y="0">19:13</tspan><tspan class="cls-9" x="609.96" y="0" xml:space="preserve">  </tspan><tspan x="642.2" y="0">22:00</tspan><tspan class="cls-8" x="663.48" y="0" xml:space="preserve">  </tspan><tspan x="695.72" y="0">00:46</tspan><tspan class="cls-9" x="716.99" y="0" xml:space="preserve">  </tspan><tspan x="749.23" y="0">03:33</tspan><tspan class="cls-8" x="770.51" y="0" xml:space="preserve">  </tspan><tspan x="802.75" y="0">05:20</tspan><tspan class="cls-9" x="824.03" y="0" xml:space="preserve">  </tspan><tspan x="856.27" y="0">08:06</tspan></text>
  <path class="cls-3" d="m15.55,213.48l17.43-2.97,3.78-5.95,7.55-5.94,1.51,2.54,5.44,5.15,7.02-5.14,11.72,13.26,3.66-33.53,3.45,4.11,6,10.71,6.64-9.97,23.23,9.46,31.91,8.9,4.02-7.35,32.94,16.72,25.85-29.42,31.6-.73,14.36-3.37,17.81,10.84,28.15-39.78,62.04,49.22,48.5-36.8,2.87-7.95,17.81,14.07,21.05-80.17,25.95,44.96,6.72,21.46,4.26-2.2,7.95-14.55,5.84,37.02,4.65,13.32,3.45-5.88,3.45-11.35v20.9l5.17-11.02,5.93,9.55v-13.42l4.98,5.34v-5.34l3.45,3.13,1.61-4.27,1.84-4.88,4.6-4.08v10.09l5.53-6.01,10.55,35.59h4.02l3.45-29.58h4.02v-6.01l8.62,31.92,10.91-36,8.04,22.77,3.55,29.38,3.91,3.33,5.74,15.77,2.87-5.14,4.6,5.88h3.45l4.6-16.51h4.02v-8.47l4.6,8.47,2.87-4.79,2.87,27.49,4.02-3.98,6.89,3.98h5.74l5.17-7.66,4.6,7.66s6.32,9.67,5.17,4.83,8.62-38.2,8.62-38.2v-12.02l3.45-7.81,8.62,24.24,4.6,22.77,6.32,14.69,9.19.73s17.69-96.06,72.27-124.43l50.67-54.51,18.96-11.86,4.02-11.95,74.8,25.45,39.56,8.5v250.34H15.55v-123.55Z"/>
</svg>